<svg width="13" height="13" viewBox="0 0 13 13" fill="none" xmlns="http://www.w3.org/2000/svg">
<path d="M3.55999 4.41211C4.23062 4.41211 4.77428 3.88438 4.77428 3.2334C4.77428 2.58241 4.23062 2.05469 3.55999 2.05469C2.88936 2.05469 2.3457 2.58241 2.3457 3.2334C2.3457 3.88438 2.88936 4.41211 3.55999 4.41211Z" fill="#A5CD38"/>
<path d="M11.452 6.76945V1.95411C11.452 1.03466 10.6809 0.286133 9.73379 0.286133C9.27843 0.286133 8.84129 0.46295 8.51951 0.775328L7.76058 1.51207C7.66343 1.4826 7.56022 1.46492 7.45093 1.46492C7.20808 1.46492 6.98344 1.53564 6.79522 1.65352L8.47093 3.28024C8.59236 3.09753 8.66522 2.87946 8.66522 2.6437C8.66522 2.53761 8.64701 2.44331 8.62272 2.34311L9.38165 1.60637C9.47272 1.51796 9.60022 1.46492 9.73379 1.46492C10.0131 1.46492 10.2377 1.68299 10.2377 1.95411V6.76945H6.07879C5.89665 6.64567 5.73272 6.50422 5.58094 6.34508L4.73094 5.43153C4.61558 5.30775 4.46986 5.20756 4.31201 5.13683C4.12379 5.04842 3.91736 5.00127 3.70486 5.00127C2.95201 5.00716 2.34487 5.59656 2.34487 6.3274V6.76945H0.523438V10.3058C0.523438 10.9541 1.06987 11.4846 1.73772 11.4846C1.73772 11.8087 2.01094 12.074 2.34487 12.074H10.8449C11.1788 12.074 11.452 11.8087 11.452 11.4846C12.1199 11.4846 12.6663 10.9541 12.6663 10.3058V6.76945H11.452Z" fill="#A5CD38"/>
</svg>
