<svg width="15" height="13" viewBox="0 0 15 13" fill="none" xmlns="http://www.w3.org/2000/svg">
<path d="M14.2115 6.4657C14.2115 5.53951 13.4309 4.78172 12.4768 4.78172V2.25575C12.4768 1.32957 11.6962 0.571777 10.7421 0.571777H3.80337C2.84929 0.571777 2.06868 1.32957 2.06868 2.25575V4.78172C1.1146 4.78172 0.333984 5.53951 0.333984 6.4657V10.6756H1.48756L2.06868 12.3596H2.93602L3.51715 10.6756H11.037L11.6095 12.3596H12.4768L13.058 10.6756H14.2115V6.4657ZM10.7421 4.78172H8.14011V2.25575H10.7421V4.78172ZM3.80337 2.25575H6.40541V4.78172H3.80337V2.25575ZM2.06868 6.4657H12.4768V8.99166H2.06868V6.4657Z" fill="#A5CD38"/>
</svg>
