<svg width="38" height="38" viewBox="0 0 38 38" fill="none" xmlns="http://www.w3.org/2000/svg">
<path d="M29.65 7C30.9098 7 32.118 7.50045 33.0088 8.39124C33.8995 9.28204 34.4 10.4902 34.4 11.75V26.95C34.4 28.2098 33.8995 29.418 33.0088 30.3088C32.118 31.1996 30.9098 31.7 29.65 31.7H8.75C7.49022 31.7 6.28204 31.1996 5.39124 30.3088C4.50044 29.418 4 28.2098 4 26.95V11.75C4 10.4902 4.50044 9.28204 5.39124 8.39124C6.28204 7.50045 7.49022 7 8.75 7H29.65ZM32.5 14.5259L19.6826 22.0689C19.5614 22.14 19.426 22.1834 19.286 22.1959C19.146 22.2084 19.0051 22.1897 18.8732 22.1411L18.7174 22.0689L5.9 14.5297V26.95C5.9 27.7059 6.20027 28.4308 6.73475 28.9653C7.26922 29.4997 7.99413 29.8 8.75 29.8H29.65C30.4059 29.8 31.1308 29.4997 31.6652 28.9653C32.1997 28.4308 32.5 27.7059 32.5 26.95V14.5259ZM29.65 8.9H8.75C7.99413 8.9 7.26922 9.20027 6.73475 9.73475C6.20027 10.2692 5.9 10.9941 5.9 11.75V12.3238L19.2 20.148L32.5 12.32V11.75C32.5 10.9941 32.1997 10.2692 31.6652 9.73475C31.1308 9.20027 30.4059 8.9 29.65 8.9V8.9Z" fill="#003B0F"/>
</svg>
