<svg width="38" height="38" viewBox="0 0 38 38" fill="none" xmlns="http://www.w3.org/2000/svg">
<path d="M24.7008 17.0999C24.7008 18.6116 24.1003 20.0615 23.0313 21.1304C21.9623 22.1994 20.5125 22.7999 19.0008 22.7999C17.489 22.7999 16.0392 22.1994 14.9703 21.1304C13.9013 20.0615 13.3008 18.6116 13.3008 17.0999C13.3008 15.5882 13.9013 14.1384 14.9703 13.0694C16.0392 12.0004 17.489 11.3999 19.0008 11.3999C20.5125 11.3999 21.9623 12.0004 23.0313 13.0694C24.1003 14.1384 24.7008 15.5882 24.7008 17.0999ZM22.8008 17.0999C22.8008 16.0921 22.4004 15.1255 21.6878 14.4129C20.9752 13.7003 20.0086 13.2999 19.0008 13.2999C17.993 13.2999 17.0264 13.7003 16.3138 14.4129C15.6011 15.1255 15.2008 16.0921 15.2008 17.0999C15.2008 18.1077 15.6011 19.0743 16.3138 19.7869C17.0264 20.4995 17.993 20.8999 19.0008 20.8999C20.0086 20.8999 20.9752 20.4995 21.6878 19.7869C22.4004 19.0743 22.8008 18.1077 22.8008 17.0999Z" fill="#003B0F"/>
<path d="M28.405 26.5145C30.8996 24.0186 32.3009 20.6344 32.3009 17.1057C32.3009 13.5769 30.8996 10.1927 28.405 7.69685C27.1703 6.46124 25.7041 5.48104 24.0903 4.81229C22.4766 4.14353 20.7469 3.79932 19 3.79932C17.2532 3.79932 15.5235 4.14353 13.9097 4.81229C12.296 5.48104 10.8298 6.46124 9.59504 7.69685C7.10052 10.1927 5.69922 13.5769 5.69922 17.1057C5.69922 20.6344 7.10052 24.0186 9.59504 26.5145L12.4849 29.3626L16.3666 33.1341L16.6193 33.3582C18.0918 34.5515 20.2483 34.4755 21.6353 33.1341L26.2618 28.6311L28.405 26.5145ZM10.9345 9.03635C11.9936 7.97687 13.2509 7.13642 14.6348 6.56301C16.0187 5.9896 17.502 5.69446 19 5.69446C20.498 5.69446 21.9814 5.9896 23.3653 6.56301C24.7492 7.13642 26.0065 7.97687 27.0655 9.03635C29.1455 11.1177 30.3414 13.9219 30.4037 16.8637C30.466 19.8055 29.3899 22.6578 27.3999 24.8254L27.0655 25.175L24.5556 27.6526L20.3186 31.7718L20.14 31.9238C19.8115 32.1713 19.4114 32.3052 19 32.3052C18.5887 32.3052 18.1886 32.1713 17.86 31.9238L17.6833 31.7718L12.0213 26.2523L10.9345 25.175L10.6001 24.8273C8.61017 22.6597 7.53407 19.8074 7.59638 16.8656C7.65869 13.9238 8.85458 11.1196 10.9345 9.03825V9.03635Z" fill="#003B0F"/>
</svg>
