<svg width="361" height="130" viewBox="0 0 361 130" fill="none" xmlns="http://www.w3.org/2000/svg">
<path d="M74.1 0.900034C73.3 1.40003 72.2 1.60003 71.5 1.40003C70.9 1.10003 69.5 1.80003 68.5 3.00003C67.5 4.10003 65.9 5.00003 65 5.00003C64.1 5.00003 62.1 6.30003 60.5 8.00003C58.9 9.60003 57.1 11 56.5 11C55.8 11 54.5 11.9 53.5 13C52.5 14.1 51.4 14.8 51 14.5C49.8 13.8 43 19 43 20.6C43 21.5 45.2 25.9 47.9 30.4C54 40.6 56 44.8 56 47.2C56 49.4 59.5 56.6 61.1 57.6C61.7 57.9 61.5 57.2 60.7 55.9C59.9 54.6 58.7 50.1 58 46C57.3 41.7 55.3 35.2 53.3 30.7C51.3 26.5 49.9 22.8 50.1 22.6C52.6 20.2 73.9 7.00003 75.2 7.00003C78.5 7.00003 84.9 14 89 22.2C91.2 26.6 93 31.3 93 32.5C93 36.6 86.9 43.3 77.4 49.5C72.3 52.8 67.4 56.1 66.4 56.7C65.3 57.4 66.3 57.3 68.5 56.4C70.7 55.5 74.5 54.2 76.8 53.5C79.2 52.7 81.9 51.5 82.8 50.7C83.8 49.8 85.6 49 86.9 48.8C88.2 48.7 89.8 47.6 90.4 46.6C91 45.5 93 43.3 94.8 41.6C96.5 39.9 98 37.8 98 37C98 36.1 98.5 34.9 99.1 34.3C100.5 32.9 99.2 24.4 97.4 22.5C96.6 21.8 96 20.2 96 19.1C96 17.9 95.1 16.5 94 15.8C92.9 15.1 92 13.6 92 12.6C92 10.2 84.5 3.00003 82 3.00003C81.1 3.00003 79.7 2.30003 79 1.50003C77.6 -0.199966 76.1 -0.399966 74.1 0.900034Z" fill="#003B0F"/>
<path d="M30.1999 27.5C28.8999 28.2 26.9999 29.7 25.8999 30.9C24.7999 32 23.2999 33 22.5999 33C21.7999 33 20.6999 33.7 19.9999 34.5C19.2999 35.3 17.7999 36 16.5999 36C15.3999 36 12.8999 37.1 10.9999 38.5C9.09992 39.9 7.19992 41 6.69992 41C6.29992 41 4.69992 42.4 3.19992 44.2C1.09992 46.6 0.499922 48.6 0.299922 52.6C0.199922 55.6 0.499922 58.2 0.999922 58.5C1.59992 58.9 1.99992 60.4 1.99992 62C1.99992 63.9 2.69992 65.3 3.99992 66C5.09992 66.6 5.99992 67.9 5.99992 69C5.99992 70 6.79992 71.5 7.79992 72.2C8.69992 72.9 10.0999 74.7 10.6999 76.2C11.3999 77.8 12.5999 79 13.3999 79C14.2999 79 15.3999 79.8 15.8999 80.9C16.9999 82.9 24.6999 84.5 26.4999 83C26.9999 82.6 29.6999 81.9 32.4999 81.4C35.8999 80.9 37.9999 80 39.2999 78.4C40.2999 77.1 41.6999 76 42.3999 76C42.9999 76 46.6999 73 50.5999 69.4L57.4999 62.8L50.4999 67C35.8999 76 24.7999 79.4 20.2999 76.4C17.1999 74.4 8.29992 60.9 6.79992 55.9C4.99992 49.7 6.49992 47.8 17.1999 42.4C22.2999 39.8 27.6999 36.9 29.1999 35.9C30.5999 34.8 32.0999 34 32.3999 34C32.6999 34 35.1999 37.1 37.9999 40.9C40.6999 44.6 44.6999 49 46.6999 50.5C48.7999 52.1 51.9999 54.7 53.8999 56.4L57.1999 59.5L55.0999 55.3C53.9999 53 52.0999 50.9 50.9999 50.5C49.8999 50.2 48.9999 49.2 48.9999 48.5C48.9999 47.7 48.1999 46.5 47.1999 45.8C46.1999 45.1 45.0999 43.8 44.6999 43C44.2999 42.2 42.8999 39.7 41.4999 37.5C40.0999 35.3 38.6999 32.8 38.3999 32C37.4999 30.1 33.7999 26 33.0999 26.1C32.7999 26.2 31.4999 26.8 30.1999 27.5Z" fill="#003B0F"/>
<path d="M95.5 47.9001C93.9 48.8001 90.3 50.8001 87.6 52.3001C84.9 53.8001 81.9 55.0001 80.9 55.0001C79.9 55.0001 78.8 55.4001 78.5 56.0001C78.2 56.5001 77 57.0001 75.9 57.0001C73.9 57.0001 64 61.6001 64 62.6001C64 62.8001 64.9 62.6001 66 62.0001C67.1 61.4001 71.9 60.5001 76.6 59.9001C81.9 59.2001 87.9 57.7001 92.1 55.9001C98.7 53.1001 101 52.9001 101 55.1001C101 55.6001 104 60.9001 107.6 66.9001C115.2 79.6001 115.3 81.3001 108.3 86.6001C102.3 91.2001 89.7 96.2001 86.3 95.4001C81.9 94.3001 74.9 86.2001 69.6 76.3001C66.8 71.2001 64.5 67.2001 64.3 67.3001C63.9 67.8001 67.1 78.3001 68.9 81.9001C69.8 83.8001 70.5 86.1001 70.6 87.1001C70.8 90.1001 71.9 92.0001 73.5 92.0001C74.3 92.0001 75 92.6001 75 93.3001C75 94.0001 76.1 95.6001 77.5 96.8001C78.9 98.0001 80 99.4001 80 100C80 100.5 80.9 101 81.9 101C83 101 84.2 101.4 84.5 102C85.3 103.2 89.7 103.3 90.4 102.1C90.7 101.6 91.8 101.4 92.8 101.7C93.8 101.9 95.4 101.2 96.4 100.1C97.5 98.9001 99.3 98.0001 100.5 98.0001C101.8 98.0001 103.3 97.3001 104 96.5001C104.7 95.7001 106.1 95.0001 107.1 95.0001C109.5 95.0001 115.7 89.0001 118.1 84.3001C120.3 80.1001 119.9 73.0001 117.4 70.9001C116.6 70.3001 116 68.9001 116 67.8001C116 66.8001 114.9 64.8001 113.5 63.4001C112.1 62.0001 111 60.3001 111 59.6001C111 58.9001 110.1 57.5001 109.1 56.6001C108 55.6001 107.2 54.1001 107.3 53.2001C107.3 52.2001 106.6 50.3001 105.6 48.7001C103.5 45.6001 100.2 45.3001 95.5 47.9001Z" fill="#003B0F"/>
<path d="M68.1129 14.9C66.5129 15.8 62.9129 18 60.2129 19.8C57.4129 21.6 54.6129 23 53.9129 23C51.8129 23 52.4129 25.1 56.1129 31.3C58.0129 34.5 60.1129 39.2 60.7129 41.8C61.2129 44.4 62.4129 47.5 63.2129 48.7L64.6129 51L69.7129 49C77.5129 46.1 85.7129 40.9 87.7129 37.5C88.8129 35.8 89.6129 33.5 89.6129 32.2C89.6129 29 85.0129 20.1 81.3129 16.2L78.2129 13L74.7129 13.1C72.7129 13.1 69.8129 13.9 68.1129 14.9Z" fill="#A5CD38"/>
<path d="M29.1128 39C28.7128 39.6 24.9128 41.9 20.5128 44.1L12.5128 48.1L11.5128 50.7C11.0128 52.1 10.8128 54.8 11.2128 56.6C12.0128 60.8 18.7128 71.4 21.5128 72.9C22.6128 73.5 24.8128 74 26.4128 74C30.0128 74 39.4128 69.2 45.2128 64.4L49.4128 61L48.9128 58.9C48.6128 57.8 46.4128 55.3 44.1128 53.3C41.8128 51.4 38.4128 47.1 36.5128 43.9L33.2128 38H31.5128C30.5128 38 29.4128 38.5 29.1128 39Z" fill="#A5CD38"/>
<path d="M91.8128 59C88.9128 60.7 84.0128 62.6 80.8128 63.1C77.7128 63.7 74.3128 64.6 73.3128 65.2L71.4128 66.2L72.1128 68.8C72.4128 70.3 74.5128 75.2 76.7128 79.8L80.7128 88.1L83.9128 90C85.7128 91.1 88.0128 92 89.1128 92C92.0128 92 103.213 86.5 106.113 83.6L108.613 81.1V77.4V73.7L104.613 67.4C102.513 64 100.413 60 100.013 58.6C99.7128 57.2 98.9128 56 98.2128 56C97.6128 56 94.7128 57.4 91.8128 59Z" fill="#A5CD38"/>
<path d="M53.6129 75.2001C52.5129 77.0001 51.4129 80.4001 51.0129 82.7001L50.4129 87.0001H48.1129C46.8129 87.0001 45.0129 87.7001 44.2129 88.6001L42.6129 90.1001V93.9001V97.6001L39.1129 99.3001L35.6129 101V102.8C35.6129 103.9 36.5129 105.9 37.6129 107.3C38.7129 108.7 39.6129 110.4 39.6129 111V112.2L37.4129 111.5C36.1129 111.2 33.0129 110.6 30.4129 110.3L25.6129 109.7L25.0129 111.4C24.0129 114.1 25.5129 118.1 28.8129 121.2L31.8129 124H29.3129C25.9129 124 25.0129 125.7 27.2129 128.1C29.2129 130.3 31.1129 130.6 30.3129 128.7L29.8129 127.3L33.7129 128C35.8129 128.4 37.8129 128.5 38.1129 128.2C39.3129 126.9 38.4129 122.9 36.2129 120.3L33.8129 117.5L38.1129 117.8L42.3129 118.2L44.0129 116.4L45.8129 114.7L45.3129 111.1C45.0129 109.1 44.6129 106.6 44.4129 105.5L44.1129 103.6L47.1129 103L50.1129 102.5L50.4129 100.7C50.6129 99.7001 50.0129 97.7001 49.1129 96.3001L47.4129 93.7001L48.7129 92.9001C49.5129 92.4001 51.4129 92.0001 52.9129 92.0001H55.7129L55.0129 86.2001L54.4129 80.4001L56.0129 76.6001C57.9129 72.1001 57.9129 72.0001 56.6129 72.0001C56.0129 72.0001 54.7129 73.4001 53.6129 75.2001Z" fill="#A5CD38"/>
<path d="M145 18.996C146.178 19.0434 147.756 19.0909 149.735 19.1383C151.762 19.1857 153.764 19.2094 155.743 19.2094C158.005 19.2094 160.196 19.1857 162.316 19.1383C164.437 19.0909 165.945 19.0671 166.84 19.0671C173.389 19.0671 178.29 20.3714 181.541 22.98C184.792 25.5885 186.418 28.9559 186.418 33.0822C186.418 34.7896 186.088 36.5919 185.428 38.489C184.769 40.3387 183.638 42.0698 182.036 43.6824C180.481 45.2475 178.337 46.5281 175.604 47.5241C172.871 48.52 169.431 49.018 165.285 49.018H158.076V47.5952H164.578C167.358 47.5952 169.455 46.9549 170.869 45.6744C172.329 44.3938 173.319 42.7101 173.837 40.6233C174.402 38.5364 174.685 36.2836 174.685 33.8647C174.685 29.3591 174.026 25.9917 172.706 23.7625C171.387 21.5334 169.125 20.4188 165.921 20.4188C164.083 20.4188 162.882 20.822 162.316 21.6283C161.798 22.4345 161.539 24.0708 161.539 26.5371V61.3968C161.539 63.2465 161.727 64.6219 162.104 65.5231C162.481 66.4242 163.212 67.017 164.295 67.3016C165.379 67.5862 166.981 67.7522 169.102 67.7996V69.3647C167.641 69.3173 165.756 69.2699 163.447 69.2225C161.138 69.175 158.712 69.1513 156.167 69.1513C154.141 69.1513 152.162 69.175 150.23 69.2225C148.298 69.2699 146.555 69.3173 145 69.3647V67.9419C146.508 67.847 147.639 67.6573 148.393 67.3728C149.147 67.0882 149.641 66.519 149.877 65.6653C150.16 64.8116 150.301 63.5311 150.301 61.8237V26.5371C150.301 24.7822 150.16 23.5017 149.877 22.6954C149.641 21.8417 149.123 21.2725 148.322 20.988C147.568 20.656 146.461 20.4663 145 20.4188V18.996Z" fill="#003B0F"/>
<path d="M227.747 18.996C227.558 21.0828 227.417 23.0985 227.323 25.0431C227.276 26.9876 227.252 28.4816 227.252 29.5251C227.252 30.4736 227.276 31.3748 227.323 32.2285C227.37 33.0822 227.417 33.7936 227.464 34.3627H225.839C225.367 30.9005 224.637 28.1734 223.648 26.1814C222.658 24.142 221.362 22.7191 219.76 21.9128C218.205 21.0591 216.368 20.6323 214.247 20.6323H211.349C209.983 20.6323 208.946 20.7508 208.239 20.988C207.533 21.2251 207.062 21.6994 206.826 22.4108C206.59 23.1222 206.473 24.2131 206.473 25.6834V62.6774C206.473 64.1476 206.59 65.2385 206.826 65.9499C207.062 66.6613 207.533 67.1356 208.239 67.3728C208.946 67.6099 209.983 67.7285 211.349 67.7285H214.813C216.933 67.7285 218.794 67.2779 220.396 66.3768C222.045 65.4282 223.435 63.8394 224.566 61.6102C225.744 59.3811 226.64 56.3694 227.252 52.5752H228.878C228.736 54.0929 228.666 56.0848 228.666 58.5511C228.666 59.642 228.689 61.1834 228.736 63.1754C228.784 65.1673 228.925 67.2305 229.16 69.3647C226.757 69.2699 224.048 69.2225 221.032 69.2225C218.017 69.175 215.331 69.1513 212.975 69.1513C211.797 69.1513 210.289 69.1513 208.452 69.1513C206.614 69.1513 204.635 69.175 202.514 69.2225C200.394 69.2225 198.25 69.2462 196.083 69.2936C193.915 69.2936 191.866 69.3173 189.934 69.3647V67.9419C191.441 67.847 192.572 67.6573 193.326 67.3728C194.08 67.0882 194.575 66.519 194.81 65.6653C195.093 64.8116 195.235 63.5311 195.235 61.8237V26.5371C195.235 24.7822 195.093 23.5017 194.81 22.6954C194.575 21.8417 194.057 21.2725 193.256 20.988C192.502 20.656 191.394 20.4663 189.934 20.4188V18.996C191.866 19.0434 193.915 19.0909 196.083 19.1383C198.25 19.1383 200.394 19.162 202.514 19.2094C204.635 19.2094 206.614 19.2094 208.452 19.2094C210.289 19.2094 211.797 19.2094 212.975 19.2094C215.142 19.2094 217.593 19.2094 220.326 19.2094C223.106 19.162 225.579 19.0909 227.747 18.996ZM216.721 43.3267C216.721 43.3267 216.721 43.5638 216.721 44.0381C216.721 44.5124 216.721 44.7495 216.721 44.7495H204.352C204.352 44.7495 204.352 44.5124 204.352 44.0381C204.352 43.5638 204.352 43.3267 204.352 43.3267H216.721ZM218.771 33.9359C218.582 36.6393 218.488 38.7024 218.488 40.1253C218.535 41.5481 218.559 42.8524 218.559 44.0381C218.559 45.2238 218.582 46.5281 218.629 47.9509C218.676 49.3738 218.794 51.4369 218.983 54.1403H217.357C217.121 52.4803 216.674 50.9389 216.014 49.516C215.402 48.0932 214.506 46.9549 213.328 46.1012C212.15 45.2001 210.619 44.7495 208.734 44.7495V43.3267C210.148 43.3267 211.349 43.0421 212.339 42.473C213.328 41.8564 214.129 41.0738 214.742 40.1253C215.402 39.1293 215.92 38.0858 216.297 36.995C216.674 35.9041 216.957 34.8844 217.145 33.9359H218.771Z" fill="#003B0F"/>
<path d="M286.325 68.511L287.597 68.8667C287.22 71.4753 286.631 73.7044 285.83 75.5541C285.029 77.4512 283.992 78.9215 282.72 79.9649C281.731 80.7712 280.435 81.4352 278.833 81.9569C277.278 82.4786 275.535 82.7395 273.603 82.7395C271.011 82.7395 268.467 82.3364 265.969 81.5301C263.519 80.7238 261.022 79.7278 258.477 78.5421C255.933 77.4038 253.247 76.2893 250.42 75.1984C250.09 75.1036 249.76 74.985 249.43 74.8427C249.148 74.7478 248.912 74.7004 248.724 74.7004C247.828 75.1273 246.839 75.483 245.755 75.7675C244.719 76.0521 243.729 76.1944 242.787 76.1944C241.844 76.1944 241.043 76.0521 240.384 75.7675C239.771 75.483 239.465 75.0087 239.465 74.3447C239.465 73.0641 240.76 72.4239 243.352 72.4239C245.001 72.4239 246.792 72.7559 248.724 73.4199C250.467 72.9456 251.951 72.4001 253.176 71.7836C254.449 71.2144 255.744 70.669 257.064 70.1473C258.43 69.6256 260.079 69.2936 262.011 69.1513L262.082 70.2896C260.574 70.4319 259.278 70.6927 258.195 71.0722C257.158 71.499 256.098 71.9496 255.014 72.4239C253.93 72.8981 252.658 73.3487 251.197 73.7756C254.543 74.0127 257.653 74.2498 260.527 74.487C263.401 74.7716 266.064 74.9376 268.514 74.985C270.964 75.0798 273.179 74.985 275.158 74.7004C278.079 74.3684 280.388 73.7281 282.084 72.7796C283.78 71.831 285.194 70.4082 286.325 68.511ZM260.386 18C265.38 18 269.739 19.0197 273.461 21.0591C277.231 23.0985 280.152 26.0391 282.225 29.8808C284.299 33.675 285.335 38.2993 285.335 43.7535C285.335 49.0655 284.275 53.7134 282.155 57.6974C280.034 61.6814 277.066 64.7879 273.249 67.017C269.48 69.2462 265.168 70.3607 260.315 70.3607C255.32 70.3607 250.938 69.341 247.169 67.3016C243.446 65.2622 240.548 62.3217 238.475 58.48C236.402 54.6383 235.365 50.014 235.365 44.6072C235.365 39.2953 236.425 34.6473 238.546 30.6633C240.713 26.6794 243.658 23.5728 247.381 21.3437C251.15 19.1146 255.485 18 260.386 18ZM260.103 19.2806C257.464 19.2806 255.155 20.3477 253.176 22.482C251.245 24.6162 249.737 27.5568 248.653 31.3036C247.616 35.0504 247.098 39.3901 247.098 44.3227C247.098 49.35 247.687 53.7371 248.865 57.484C250.09 61.1834 251.716 64.0528 253.742 66.0922C255.815 68.0842 258.1 69.0802 260.598 69.0802C263.236 69.0802 265.522 68.013 267.454 65.8788C269.433 63.7445 270.94 60.804 271.977 57.0571C273.061 53.2629 273.603 48.9232 273.603 44.0381C273.603 38.9633 272.99 34.5762 271.765 30.8768C270.587 27.1774 268.961 24.3317 266.888 22.3397C264.862 20.3003 262.6 19.2806 260.103 19.2806Z" fill="#003B0F"/>
<path d="M335.453 18.996V20.4188C333.945 20.6086 332.791 21.0117 331.99 21.6283C331.236 22.1974 330.741 23.1222 330.505 24.4028C330.27 25.6834 330.152 27.4856 330.152 29.8096V48.6623C330.152 51.7452 329.94 54.5671 329.516 57.1283C329.092 59.6894 328.338 61.8948 327.254 63.7445C326.029 65.7839 324.238 67.3965 321.882 68.5822C319.527 69.7679 316.534 70.3607 312.906 70.3607C310.739 70.3607 308.524 70.0999 306.262 69.5782C304.001 69.1039 301.975 68.179 300.184 66.8036C298.676 65.5231 297.522 64.0765 296.721 62.4639C295.92 60.8514 295.378 58.9543 295.095 56.7726C294.812 54.5434 294.671 51.9112 294.671 48.8758V26.5371C294.671 24.7822 294.53 23.5017 294.247 22.6954C294.011 21.8417 293.517 21.2725 292.763 20.988C292.009 20.656 290.878 20.4663 289.37 20.4188V18.996C290.548 19.0434 292.127 19.0909 294.106 19.1383C296.132 19.1857 298.229 19.2094 300.396 19.2094C302.564 19.2094 304.637 19.1857 306.616 19.1383C308.642 19.0909 310.315 19.0434 311.634 18.996V20.4188C310.032 20.4663 308.807 20.656 307.959 20.988C307.158 21.2725 306.616 21.8417 306.333 22.6954C306.05 23.5017 305.909 24.7822 305.909 26.5371V53.3577C305.909 55.7291 306.05 57.8397 306.333 59.6894C306.663 61.4917 307.181 63.0094 307.888 64.2425C308.642 65.4282 309.655 66.3293 310.927 66.9459C312.199 67.5625 313.778 67.8708 315.663 67.8708C318.961 67.8708 321.529 67.0882 323.367 65.5231C325.252 63.9579 326.571 61.7999 327.325 59.0491C328.126 56.2508 328.526 53.0494 328.526 49.4449V30.6633C328.526 28.0548 328.361 26.0628 328.032 24.6874C327.702 23.2645 327.042 22.2448 326.053 21.6283C325.11 21.0117 323.649 20.6086 321.67 20.4188V18.996C322.566 19.0434 323.744 19.0909 325.204 19.1383C326.665 19.1857 328.032 19.2094 329.304 19.2094C330.435 19.2094 331.542 19.1857 332.626 19.1383C333.757 19.0909 334.699 19.0434 335.453 18.996Z" fill="#003B0F"/>
<path d="M361 18.996V20.4188C359.492 20.4663 358.338 20.656 357.537 20.988C356.783 21.2725 356.288 21.8417 356.052 22.6954C355.817 23.5017 355.699 24.7822 355.699 26.5371V61.8237C355.699 63.5311 355.817 64.8116 356.052 65.6653C356.335 66.519 356.853 67.0882 357.607 67.3728C358.361 67.6573 359.492 67.847 361 67.9419V69.3647C359.728 69.2699 358.126 69.2225 356.194 69.2225C354.262 69.175 352.306 69.1513 350.327 69.1513C348.019 69.1513 345.875 69.175 343.896 69.2225C341.964 69.2225 340.385 69.2699 339.16 69.3647V67.9419C340.668 67.847 341.799 67.6573 342.553 67.3728C343.307 67.0882 343.801 66.519 344.037 65.6653C344.32 64.8116 344.461 63.5311 344.461 61.8237V26.5371C344.461 24.7822 344.32 23.5017 344.037 22.6954C343.801 21.8417 343.283 21.2725 342.482 20.988C341.728 20.656 340.621 20.4663 339.16 20.4188V18.996C340.385 19.0434 341.964 19.0909 343.896 19.1383C345.875 19.1857 348.019 19.2094 350.327 19.2094C352.306 19.2094 354.262 19.1857 356.194 19.1383C358.126 19.0909 359.728 19.0434 361 18.996Z" fill="#003B0F"/>
<path d="M145 97.5252C145.32 97.5378 145.748 97.5504 146.285 97.563C146.835 97.5756 147.379 97.5819 147.916 97.5819C148.53 97.5819 149.125 97.5756 149.701 97.563C150.276 97.5504 150.685 97.5441 150.928 97.5441C152.706 97.5441 154.037 97.8908 154.919 98.584C155.802 99.2773 156.243 100.172 156.243 101.269C156.243 101.723 156.154 102.202 155.974 102.706C155.795 103.197 155.488 103.658 155.054 104.086C154.631 104.502 154.049 104.842 153.308 105.107C152.566 105.372 151.632 105.504 150.506 105.504H148.549V105.126H150.315C151.069 105.126 151.638 104.956 152.022 104.616C152.419 104.275 152.687 103.828 152.828 103.273C152.981 102.718 153.058 102.12 153.058 101.477C153.058 100.279 152.879 99.3844 152.521 98.792C152.163 98.1996 151.549 97.9034 150.679 97.9034C150.18 97.9034 149.854 98.0105 149.701 98.2248C149.56 98.4391 149.49 98.8739 149.49 99.5294V108.794C149.49 109.286 149.541 109.651 149.643 109.891C149.745 110.13 149.944 110.288 150.238 110.363C150.532 110.439 150.967 110.483 151.542 110.496V110.912C151.146 110.899 150.634 110.887 150.008 110.874C149.381 110.861 148.722 110.855 148.031 110.855C147.481 110.855 146.944 110.861 146.42 110.874C145.895 110.887 145.422 110.899 145 110.912V110.534C145.409 110.508 145.716 110.458 145.921 110.382C146.126 110.307 146.26 110.155 146.324 109.929C146.401 109.702 146.439 109.361 146.439 108.908V99.5294C146.439 99.063 146.401 98.7227 146.324 98.5084C146.26 98.2815 146.119 98.1302 145.902 98.0546C145.697 97.9664 145.397 97.916 145 97.9034V97.5252Z" fill="#A5CD38"/>
<path d="M164.256 97.2605C165.611 97.2605 166.795 97.5315 167.805 98.0735C168.828 98.6155 169.621 99.3971 170.184 100.418C170.747 101.426 171.028 102.655 171.028 104.105C171.028 105.517 170.741 106.752 170.165 107.811C169.589 108.87 168.784 109.695 167.747 110.288C166.724 110.88 165.554 111.176 164.236 111.176C162.881 111.176 161.691 110.905 160.668 110.363C159.657 109.821 158.871 109.04 158.308 108.019C157.745 106.998 157.464 105.769 157.464 104.332C157.464 102.92 157.752 101.685 158.327 100.626C158.916 99.5672 159.715 98.7416 160.725 98.1492C161.749 97.5567 162.925 97.2605 164.256 97.2605ZM164.179 97.6008C163.463 97.6008 162.836 97.8844 162.299 98.4517C161.774 99.0189 161.365 99.8004 161.071 100.796C160.789 101.792 160.649 102.945 160.649 104.256C160.649 105.592 160.809 106.758 161.128 107.754C161.461 108.737 161.902 109.5 162.452 110.042C163.015 110.571 163.635 110.836 164.313 110.836C165.029 110.836 165.65 110.553 166.174 109.985C166.711 109.418 167.121 108.637 167.402 107.641C167.696 106.632 167.843 105.479 167.843 104.181C167.843 102.832 167.677 101.666 167.345 100.683C167.025 99.6996 166.584 98.9433 166.021 98.4139C165.471 97.8718 164.857 97.6008 164.179 97.6008Z" fill="#A5CD38"/>
<path d="M184.633 97.5252V97.9034C184.224 97.9538 183.91 98.0609 183.693 98.2248C183.488 98.376 183.354 98.6218 183.29 98.9622C183.226 99.3025 183.194 99.7815 183.194 100.399V105.41C183.194 106.229 183.136 106.979 183.021 107.66C182.906 108.34 182.701 108.926 182.407 109.418C182.075 109.96 181.589 110.389 180.949 110.704C180.31 111.019 179.497 111.176 178.513 111.176C177.924 111.176 177.323 111.107 176.709 110.968C176.095 110.842 175.545 110.597 175.059 110.231C174.65 109.891 174.336 109.506 174.119 109.078C173.901 108.649 173.754 108.145 173.678 107.565C173.601 106.973 173.563 106.273 173.563 105.466V99.5294C173.563 99.063 173.524 98.7227 173.447 98.5084C173.383 98.2815 173.249 98.1302 173.044 98.0546C172.84 97.9664 172.533 97.916 172.124 97.9034V97.5252C172.443 97.5378 172.872 97.5504 173.409 97.563C173.959 97.5756 174.528 97.5819 175.117 97.5819C175.705 97.5819 176.268 97.5756 176.805 97.563C177.355 97.5504 177.809 97.5378 178.167 97.5252V97.9034C177.732 97.916 177.4 97.9664 177.17 98.0546C176.952 98.1302 176.805 98.2815 176.728 98.5084C176.651 98.7227 176.613 99.063 176.613 99.5294V106.658C176.613 107.288 176.651 107.849 176.728 108.34C176.818 108.819 176.958 109.223 177.15 109.55C177.355 109.866 177.63 110.105 177.975 110.269C178.321 110.433 178.749 110.515 179.261 110.515C180.156 110.515 180.853 110.307 181.352 109.891C181.864 109.475 182.222 108.901 182.426 108.17C182.644 107.426 182.753 106.576 182.753 105.618V100.626C182.753 99.9328 182.708 99.4034 182.618 99.0378C182.529 98.6597 182.35 98.3886 182.081 98.2248C181.825 98.0609 181.429 97.9538 180.892 97.9034V97.5252C181.135 97.5378 181.454 97.5504 181.851 97.563C182.247 97.5756 182.618 97.5819 182.964 97.5819C183.271 97.5819 183.571 97.5756 183.865 97.563C184.172 97.5504 184.428 97.5378 184.633 97.5252Z" fill="#A5CD38"/>
<path d="M190.436 97.2794C191.19 97.2794 191.772 97.3613 192.182 97.5252C192.591 97.6765 192.943 97.8403 193.237 98.0168C193.39 98.105 193.512 98.1744 193.601 98.2248C193.704 98.2626 193.8 98.2815 193.889 98.2815C194.017 98.2815 194.107 98.2122 194.158 98.0735C194.222 97.9349 194.273 97.7269 194.311 97.4496H194.753C194.74 97.6891 194.721 97.979 194.695 98.3193C194.682 98.6471 194.67 99.0819 194.657 99.6239C194.657 100.166 194.657 100.878 194.657 101.76H194.215C194.164 101.105 194.011 100.468 193.755 99.8508C193.499 99.2332 193.135 98.729 192.661 98.3382C192.201 97.9349 191.632 97.7332 190.954 97.7332C190.34 97.7332 189.835 97.9034 189.438 98.2437C189.042 98.584 188.843 99.0567 188.843 99.6618C188.843 100.166 188.971 100.601 189.227 100.966C189.483 101.319 189.854 101.666 190.34 102.006C190.839 102.347 191.44 102.756 192.143 103.235C192.757 103.626 193.307 104.017 193.793 104.408C194.279 104.798 194.67 105.239 194.964 105.731C195.258 106.223 195.405 106.809 195.405 107.489C195.405 108.321 195.181 109.008 194.733 109.55C194.299 110.092 193.723 110.502 193.007 110.779C192.29 111.044 191.504 111.176 190.647 111.176C189.854 111.176 189.221 111.101 188.747 110.95C188.274 110.798 187.878 110.641 187.558 110.477C187.276 110.3 187.059 110.212 186.906 110.212C186.778 110.212 186.682 110.282 186.618 110.42C186.567 110.559 186.522 110.767 186.483 111.044H186.042C186.068 110.742 186.081 110.389 186.081 109.985C186.093 109.582 186.1 109.059 186.1 108.416C186.113 107.76 186.119 106.935 186.119 105.939H186.56C186.611 106.771 186.752 107.553 186.982 108.284C187.225 109.002 187.59 109.582 188.076 110.023C188.575 110.464 189.233 110.685 190.052 110.685C190.5 110.685 190.896 110.609 191.242 110.458C191.6 110.294 191.888 110.055 192.105 109.739C192.322 109.424 192.431 109.034 192.431 108.567C192.431 108.038 192.303 107.578 192.047 107.187C191.804 106.796 191.465 106.431 191.031 106.09C190.608 105.75 190.116 105.403 189.553 105.05C188.952 104.66 188.389 104.269 187.865 103.878C187.34 103.487 186.918 103.04 186.599 102.536C186.292 102.032 186.138 101.433 186.138 100.739C186.138 99.9454 186.336 99.2962 186.733 98.792C187.142 98.2752 187.673 97.8971 188.325 97.6576C188.99 97.4055 189.694 97.2794 190.436 97.2794Z" fill="#A5CD38"/>
<path d="M203.008 97.4874L207.67 109.324C207.849 109.777 208.048 110.092 208.265 110.269C208.495 110.433 208.7 110.521 208.879 110.534V110.912C208.495 110.887 208.041 110.874 207.517 110.874C207.005 110.861 206.487 110.855 205.963 110.855C205.374 110.855 204.818 110.861 204.294 110.874C203.769 110.874 203.354 110.887 203.047 110.912V110.534C203.699 110.508 204.108 110.401 204.274 110.212C204.454 110.01 204.415 109.588 204.159 108.945L200.898 100.153L201.243 99.6618L198.327 107.149C198.045 107.842 197.873 108.41 197.809 108.851C197.758 109.292 197.79 109.632 197.905 109.872C198.033 110.111 198.231 110.282 198.499 110.382C198.781 110.471 199.113 110.521 199.497 110.534V110.912C199.075 110.887 198.672 110.874 198.288 110.874C197.905 110.861 197.515 110.855 197.118 110.855C196.837 110.855 196.568 110.861 196.312 110.874C196.069 110.874 195.852 110.887 195.66 110.912V110.534C195.929 110.483 196.204 110.313 196.485 110.023C196.766 109.733 197.041 109.242 197.31 108.548L201.684 97.4874C201.889 97.5 202.106 97.5063 202.337 97.5063C202.58 97.5063 202.804 97.5 203.008 97.4874ZM204.351 105.466V105.845H198.634L198.826 105.466H204.351Z" fill="#A5CD38"/>
<path d="M214.951 97.5252C217.471 97.5252 219.344 98.0924 220.572 99.2269C221.8 100.349 222.414 101.962 222.414 104.067C222.414 105.441 222.114 106.645 221.512 107.679C220.911 108.7 220.035 109.494 218.884 110.061C217.746 110.628 216.377 110.912 214.778 110.912C214.573 110.912 214.305 110.905 213.972 110.893C213.64 110.88 213.294 110.874 212.936 110.874C212.578 110.861 212.258 110.855 211.977 110.855C211.414 110.855 210.858 110.861 210.308 110.874C209.771 110.874 209.342 110.887 209.022 110.912V110.534C209.432 110.508 209.739 110.458 209.943 110.382C210.148 110.307 210.282 110.155 210.346 109.929C210.423 109.702 210.461 109.361 210.461 108.908V99.5294C210.461 99.063 210.423 98.7227 210.346 98.5084C210.282 98.2815 210.141 98.1302 209.924 98.0546C209.719 97.9664 209.419 97.916 209.022 97.9034V97.5252C209.342 97.5378 209.771 97.5567 210.308 97.5819C210.858 97.5945 211.401 97.5945 211.939 97.5819C212.399 97.5693 212.917 97.5567 213.493 97.5441C214.081 97.5315 214.567 97.5252 214.951 97.5252ZM214.932 97.8655C214.343 97.8655 213.96 97.9727 213.78 98.187C213.601 98.4013 213.512 98.8361 213.512 99.4916V108.945C213.512 109.601 213.601 110.036 213.78 110.25C213.972 110.464 214.362 110.571 214.951 110.571C216.025 110.571 216.869 110.326 217.483 109.834C218.11 109.33 218.558 108.599 218.826 107.641C219.095 106.683 219.229 105.517 219.229 104.143C219.229 102.731 219.082 101.565 218.788 100.645C218.507 99.7122 218.053 99.0189 217.426 98.5651C216.799 98.0987 215.968 97.8655 214.932 97.8655Z" fill="#A5CD38"/>
<path d="M229.745 97.4874L234.407 109.324C234.586 109.777 234.785 110.092 235.002 110.269C235.232 110.433 235.437 110.521 235.616 110.534V110.912C235.232 110.887 234.778 110.874 234.254 110.874C233.742 110.861 233.224 110.855 232.7 110.855C232.111 110.855 231.555 110.861 231.031 110.874C230.506 110.874 230.09 110.887 229.783 110.912V110.534C230.436 110.508 230.845 110.401 231.011 110.212C231.19 110.01 231.152 109.588 230.896 108.945L227.635 100.153L227.98 99.6618L225.064 107.149C224.782 107.842 224.61 108.41 224.546 108.851C224.494 109.292 224.526 109.632 224.642 109.872C224.769 110.111 224.968 110.282 225.236 110.382C225.518 110.471 225.85 110.521 226.234 110.534V110.912C225.812 110.887 225.409 110.874 225.025 110.874C224.642 110.861 224.251 110.855 223.855 110.855C223.574 110.855 223.305 110.861 223.049 110.874C222.806 110.874 222.589 110.887 222.397 110.912V110.534C222.665 110.483 222.94 110.313 223.222 110.023C223.503 109.733 223.778 109.242 224.047 108.548L228.421 97.4874C228.626 97.5 228.843 97.5063 229.074 97.5063C229.317 97.5063 229.54 97.5 229.745 97.4874ZM231.088 105.466V105.845H225.371L225.562 105.466H231.088Z" fill="#A5CD38"/>
<path d="M240.612 97.5252C240.932 97.5378 241.36 97.5504 241.897 97.563C242.447 97.5756 242.991 97.5819 243.528 97.5819C244.142 97.5819 244.737 97.5756 245.312 97.563C245.888 97.5504 246.297 97.5441 246.54 97.5441C248.318 97.5441 249.649 97.8908 250.531 98.584C251.414 99.2773 251.855 100.172 251.855 101.269C251.855 101.723 251.765 102.202 251.586 102.706C251.407 103.197 251.1 103.658 250.665 104.086C250.243 104.502 249.661 104.842 248.919 105.107C248.178 105.372 247.244 105.504 246.118 105.504H244.161V105.126H245.926C246.681 105.126 247.25 104.956 247.634 104.616C248.03 104.275 248.299 103.828 248.44 103.273C248.593 102.718 248.67 102.12 248.67 101.477C248.67 100.279 248.491 99.3844 248.133 98.792C247.775 98.1996 247.161 97.9034 246.291 97.9034C245.792 97.9034 245.466 98.0105 245.312 98.2248C245.172 98.4391 245.101 98.8739 245.101 99.5294V108.794C245.101 109.286 245.153 109.651 245.255 109.891C245.357 110.13 245.555 110.288 245.85 110.363C246.144 110.439 246.579 110.483 247.154 110.496V110.912C246.758 110.899 246.246 110.887 245.619 110.874C244.993 110.861 244.334 110.855 243.643 110.855C243.093 110.855 242.556 110.861 242.032 110.874C241.507 110.887 241.034 110.899 240.612 110.912V110.534C241.021 110.508 241.328 110.458 241.533 110.382C241.737 110.307 241.872 110.155 241.936 109.929C242.012 109.702 242.051 109.361 242.051 108.908V99.5294C242.051 99.063 242.012 98.7227 241.936 98.5084C241.872 98.2815 241.731 98.1302 241.514 98.0546C241.309 97.9664 241.008 97.916 240.612 97.9034V97.5252Z" fill="#A5CD38"/>
<path d="M258.224 97.4874L262.887 109.324C263.066 109.777 263.264 110.092 263.481 110.269C263.712 110.433 263.916 110.521 264.095 110.534V110.912C263.712 110.887 263.258 110.874 262.733 110.874C262.221 110.861 261.703 110.855 261.179 110.855C260.591 110.855 260.034 110.861 259.51 110.874C258.985 110.874 258.57 110.887 258.263 110.912V110.534C258.915 110.508 259.324 110.401 259.491 110.212C259.67 110.01 259.631 109.588 259.376 108.945L256.114 100.153L256.459 99.6618L253.543 107.149C253.262 107.842 253.089 108.41 253.025 108.851C252.974 109.292 253.006 109.632 253.121 109.872C253.249 110.111 253.447 110.282 253.716 110.382C253.997 110.471 254.33 110.521 254.713 110.534V110.912C254.291 110.887 253.888 110.874 253.505 110.874C253.121 110.861 252.731 110.855 252.334 110.855C252.053 110.855 251.784 110.861 251.528 110.874C251.285 110.874 251.068 110.887 250.876 110.912V110.534C251.145 110.483 251.42 110.313 251.701 110.023C251.983 109.733 252.258 109.242 252.526 108.548L256.901 97.4874C257.105 97.5 257.323 97.5063 257.553 97.5063C257.796 97.5063 258.02 97.5 258.224 97.4874ZM259.567 105.466V105.845H253.85L254.042 105.466H259.567Z" fill="#A5CD38"/>
<path d="M276.882 97.5252V97.9034C276.473 97.9538 276.166 98.0609 275.961 98.2248C275.757 98.376 275.616 98.6218 275.539 98.9622C275.475 99.3025 275.443 99.7815 275.443 100.399V110.95C275.29 110.937 275.13 110.931 274.963 110.931C274.81 110.931 274.644 110.937 274.465 110.95L266.138 100.55V107.811C266.138 108.504 266.176 109.04 266.253 109.418C266.33 109.784 266.496 110.048 266.752 110.212C267.02 110.363 267.436 110.471 267.999 110.534V110.912C267.756 110.887 267.436 110.874 267.04 110.874C266.643 110.861 266.272 110.855 265.927 110.855C265.633 110.855 265.332 110.861 265.025 110.874C264.718 110.874 264.462 110.887 264.258 110.912V110.534C264.667 110.471 264.974 110.363 265.179 110.212C265.383 110.061 265.518 109.815 265.582 109.475C265.658 109.122 265.697 108.643 265.697 108.038V99.5294C265.697 99.063 265.658 98.7227 265.582 98.5084C265.518 98.2815 265.377 98.1302 265.159 98.0546C264.955 97.9664 264.654 97.916 264.258 97.9034V97.5252C264.462 97.5378 264.718 97.5504 265.025 97.563C265.332 97.5756 265.633 97.5819 265.927 97.5819C266.234 97.5819 266.528 97.5756 266.809 97.563C267.091 97.5504 267.347 97.5378 267.577 97.5252L275.002 106.544V100.626C275.002 99.9328 274.963 99.4034 274.887 99.0378C274.81 98.6597 274.637 98.3886 274.369 98.2248C274.113 98.0609 273.704 97.9538 273.141 97.9034V97.5252C273.384 97.5378 273.704 97.5504 274.1 97.563C274.497 97.5756 274.868 97.5819 275.213 97.5819C275.52 97.5819 275.82 97.5756 276.115 97.563C276.422 97.5504 276.677 97.5378 276.882 97.5252Z" fill="#A5CD38"/>
<path d="M289.75 97.5252C289.699 98.1681 289.66 98.7857 289.635 99.3781C289.622 99.9706 289.616 100.424 289.616 100.739C289.616 101.017 289.622 101.282 289.635 101.534C289.647 101.786 289.66 102 289.673 102.176H289.232C289.027 101.118 288.765 100.279 288.445 99.6618C288.138 99.0441 287.767 98.6092 287.332 98.3571C286.897 98.0924 286.386 97.9601 285.797 97.9601H285.356V108.756C285.356 109.26 285.407 109.639 285.51 109.891C285.625 110.143 285.829 110.313 286.124 110.401C286.418 110.477 286.846 110.521 287.409 110.534V110.912C287.013 110.899 286.482 110.887 285.817 110.874C285.164 110.861 284.48 110.855 283.764 110.855C283.06 110.855 282.395 110.861 281.768 110.874C281.142 110.887 280.636 110.899 280.253 110.912V110.534C280.828 110.521 281.263 110.477 281.557 110.401C281.852 110.313 282.05 110.143 282.152 109.891C282.254 109.639 282.306 109.26 282.306 108.756V97.9601H281.884C281.295 97.9601 280.784 98.0924 280.349 98.3571C279.914 98.6092 279.543 99.0441 279.236 99.6618C278.929 100.267 278.66 101.105 278.43 102.176H277.989C278.014 102 278.027 101.786 278.027 101.534C278.04 101.282 278.046 101.017 278.046 100.739C278.046 100.424 278.034 99.9706 278.008 99.3781C277.995 98.7857 277.963 98.1681 277.912 97.5252C278.5 97.5378 279.14 97.5504 279.831 97.563C280.534 97.5756 281.238 97.5819 281.941 97.5819C282.645 97.5819 283.278 97.5819 283.841 97.5819C284.416 97.5819 285.049 97.5819 285.74 97.5819C286.443 97.5819 287.147 97.5756 287.85 97.563C288.554 97.5504 289.187 97.5378 289.75 97.5252Z" fill="#A5CD38"/>
<path d="M296.203 97.4874L300.865 109.324C301.044 109.777 301.243 110.092 301.46 110.269C301.69 110.433 301.895 110.521 302.074 110.534V110.912C301.69 110.887 301.236 110.874 300.712 110.874C300.2 110.861 299.682 110.855 299.158 110.855C298.569 110.855 298.013 110.861 297.489 110.874C296.964 110.874 296.548 110.887 296.241 110.912V110.534C296.894 110.508 297.303 110.401 297.469 110.212C297.648 110.01 297.61 109.588 297.354 108.945L294.093 100.153L294.438 99.6618L291.522 107.149C291.24 107.842 291.068 108.41 291.004 108.851C290.952 109.292 290.984 109.632 291.1 109.872C291.227 110.111 291.426 110.282 291.694 110.382C291.976 110.471 292.308 110.521 292.692 110.534V110.912C292.27 110.887 291.867 110.874 291.483 110.874C291.1 110.861 290.709 110.855 290.313 110.855C290.032 110.855 289.763 110.861 289.507 110.874C289.264 110.874 289.047 110.887 288.855 110.912V110.534C289.123 110.483 289.398 110.313 289.68 110.023C289.961 109.733 290.236 109.242 290.505 108.548L294.879 97.4874C295.084 97.5 295.301 97.5063 295.532 97.5063C295.775 97.5063 295.998 97.5 296.203 97.4874ZM297.546 105.466V105.845H291.829L292.021 105.466H297.546Z" fill="#A5CD38"/>
<path d="M314.861 97.5252V97.9034C314.451 97.9538 314.145 98.0609 313.94 98.2248C313.735 98.376 313.594 98.6218 313.518 98.9622C313.454 99.3025 313.422 99.7815 313.422 100.399V110.95C313.268 110.937 313.108 110.931 312.942 110.931C312.789 110.931 312.622 110.937 312.443 110.95L304.117 100.55V107.811C304.117 108.504 304.155 109.04 304.232 109.418C304.308 109.784 304.475 110.048 304.731 110.212C304.999 110.363 305.415 110.471 305.978 110.534V110.912C305.735 110.887 305.415 110.874 305.018 110.874C304.622 110.861 304.251 110.855 303.906 110.855C303.611 110.855 303.311 110.861 303.004 110.874C302.697 110.874 302.441 110.887 302.236 110.912V110.534C302.646 110.471 302.953 110.363 303.157 110.212C303.362 110.061 303.496 109.815 303.56 109.475C303.637 109.122 303.675 108.643 303.675 108.038V99.5294C303.675 99.063 303.637 98.7227 303.56 98.5084C303.496 98.2815 303.356 98.1302 303.138 98.0546C302.933 97.9664 302.633 97.916 302.236 97.9034V97.5252C302.441 97.5378 302.697 97.5504 303.004 97.563C303.311 97.5756 303.611 97.5819 303.906 97.5819C304.213 97.5819 304.507 97.5756 304.788 97.563C305.069 97.5504 305.325 97.5378 305.556 97.5252L312.981 106.544V100.626C312.981 99.9328 312.942 99.4034 312.865 99.0378C312.789 98.6597 312.616 98.3886 312.347 98.2248C312.092 98.0609 311.682 97.9538 311.119 97.9034V97.5252C311.363 97.5378 311.682 97.5504 312.079 97.563C312.475 97.5756 312.846 97.5819 313.192 97.5819C313.499 97.5819 313.799 97.5756 314.093 97.563C314.4 97.5504 314.656 97.5378 314.861 97.5252Z" fill="#A5CD38"/>
<path d="M326.328 97.5252C326.277 98.0798 326.238 98.6155 326.213 99.1323C326.2 99.6492 326.194 100.046 326.194 100.324C326.194 100.576 326.2 100.815 326.213 101.042C326.226 101.269 326.238 101.458 326.251 101.609H325.81C325.682 100.689 325.484 99.9643 325.215 99.4349C324.947 98.8929 324.595 98.5147 324.16 98.3004C323.738 98.0735 323.239 97.9601 322.663 97.9601H321.877C321.506 97.9601 321.224 97.9916 321.033 98.0546C320.841 98.1176 320.713 98.2437 320.649 98.4328C320.585 98.6218 320.553 98.9118 320.553 99.3025V109.134C320.553 109.525 320.585 109.815 320.649 110.004C320.713 110.193 320.841 110.319 321.033 110.382C321.224 110.445 321.506 110.477 321.877 110.477H322.817C323.392 110.477 323.898 110.357 324.333 110.118C324.78 109.866 325.158 109.443 325.465 108.851C325.784 108.258 326.027 107.458 326.194 106.45H326.635C326.597 106.853 326.577 107.382 326.577 108.038C326.577 108.328 326.584 108.737 326.597 109.267C326.609 109.796 326.648 110.345 326.712 110.912C326.059 110.887 325.324 110.874 324.505 110.874C323.687 110.861 322.958 110.855 322.318 110.855C321.998 110.855 321.589 110.855 321.09 110.855C320.591 110.855 320.054 110.861 319.478 110.874C318.903 110.874 318.321 110.88 317.733 110.893C317.144 110.893 316.588 110.899 316.063 110.912V110.534C316.473 110.508 316.78 110.458 316.984 110.382C317.189 110.307 317.323 110.155 317.387 109.929C317.464 109.702 317.502 109.361 317.502 108.908V99.5294C317.502 99.063 317.464 98.7227 317.387 98.5084C317.323 98.2815 317.183 98.1302 316.965 98.0546C316.76 97.9664 316.46 97.916 316.063 97.9034V97.5252C316.588 97.5378 317.144 97.5504 317.733 97.563C318.321 97.563 318.903 97.5693 319.478 97.5819C320.054 97.5819 320.591 97.5819 321.09 97.5819C321.589 97.5819 321.998 97.5819 322.318 97.5819C322.906 97.5819 323.572 97.5819 324.313 97.5819C325.068 97.5693 325.74 97.5504 326.328 97.5252ZM323.335 103.992C323.335 103.992 323.335 104.055 323.335 104.181C323.335 104.307 323.335 104.37 323.335 104.37H319.977C319.977 104.37 319.977 104.307 319.977 104.181C319.977 104.055 319.977 103.992 319.977 103.992H323.335ZM323.891 101.496C323.84 102.214 323.815 102.763 323.815 103.141C323.827 103.519 323.834 103.866 323.834 104.181C323.834 104.496 323.84 104.842 323.853 105.221C323.866 105.599 323.898 106.147 323.949 106.866H323.508C323.444 106.424 323.322 106.015 323.143 105.637C322.977 105.258 322.734 104.956 322.414 104.729C322.094 104.489 321.678 104.37 321.167 104.37V103.992C321.551 103.992 321.877 103.916 322.145 103.765C322.414 103.601 322.631 103.393 322.798 103.141C322.977 102.876 323.117 102.599 323.22 102.309C323.322 102.019 323.399 101.748 323.45 101.496H323.891Z" fill="#A5CD38"/>
<path d="M334.152 97.5252V97.9034C333.742 97.916 333.429 97.9664 333.212 98.0546C333.007 98.1302 332.873 98.2815 332.809 98.5084C332.745 98.7227 332.713 99.063 332.713 99.5294V108.908C332.713 109.361 332.745 109.702 332.809 109.929C332.886 110.155 333.026 110.307 333.231 110.382C333.436 110.458 333.742 110.508 334.152 110.534V110.912C333.806 110.887 333.372 110.874 332.847 110.874C332.323 110.861 331.792 110.855 331.255 110.855C330.628 110.855 330.046 110.861 329.509 110.874C328.984 110.874 328.556 110.887 328.223 110.912V110.534C328.633 110.508 328.94 110.458 329.144 110.382C329.349 110.307 329.483 110.155 329.547 109.929C329.624 109.702 329.662 109.361 329.662 108.908V99.5294C329.662 99.063 329.624 98.7227 329.547 98.5084C329.483 98.2815 329.342 98.1302 329.125 98.0546C328.92 97.9664 328.62 97.916 328.223 97.9034V97.5252C328.556 97.5378 328.984 97.5504 329.509 97.563C330.046 97.5756 330.628 97.5819 331.255 97.5819C331.792 97.5819 332.323 97.5756 332.847 97.563C333.372 97.5504 333.806 97.5378 334.152 97.5252Z" fill="#A5CD38"/>
<path d="M335.437 97.5252C335.757 97.5378 336.185 97.5504 336.722 97.563C337.272 97.5756 337.816 97.5819 338.353 97.5819C338.967 97.5819 339.562 97.5756 340.137 97.563C340.713 97.5504 341.122 97.5441 341.365 97.5441C342.555 97.5441 343.54 97.6765 344.32 97.9412C345.113 98.1933 345.701 98.5651 346.085 99.0567C346.482 99.5483 346.68 100.141 346.68 100.834C346.68 101.263 346.59 101.697 346.411 102.139C346.232 102.567 345.925 102.971 345.49 103.349C345.068 103.714 344.486 104.01 343.744 104.237C343.003 104.452 342.069 104.559 340.943 104.559H339.101V104.181H340.751C341.506 104.181 342.075 104.042 342.459 103.765C342.855 103.475 343.124 103.097 343.265 102.63C343.418 102.151 343.495 101.622 343.495 101.042C343.495 100.046 343.316 99.2773 342.958 98.7353C342.6 98.1807 341.986 97.9034 341.116 97.9034C340.617 97.9034 340.291 98.0105 340.137 98.2248C339.997 98.4391 339.926 98.8739 339.926 99.5294V108.908C339.926 109.361 339.958 109.702 340.022 109.929C340.099 110.155 340.24 110.307 340.444 110.382C340.649 110.458 340.956 110.508 341.365 110.534V110.912C341.02 110.887 340.585 110.874 340.061 110.874C339.536 110.861 339.005 110.855 338.468 110.855C337.854 110.855 337.272 110.861 336.722 110.874C336.185 110.874 335.757 110.887 335.437 110.912V110.534C335.846 110.508 336.153 110.458 336.358 110.382C336.562 110.307 336.697 110.155 336.761 109.929C336.837 109.702 336.876 109.361 336.876 108.908V99.5294C336.876 99.063 336.837 98.7227 336.761 98.5084C336.697 98.2815 336.556 98.1302 336.339 98.0546C336.134 97.9664 335.833 97.916 335.437 97.9034V97.5252ZM339.063 104.237C339.613 104.25 340.086 104.275 340.483 104.313C340.892 104.351 341.25 104.389 341.557 104.426C341.864 104.452 342.139 104.471 342.382 104.483C343.546 104.584 344.403 104.83 344.953 105.221C345.516 105.611 345.88 106.197 346.047 106.979L346.488 108.926C346.603 109.431 346.725 109.784 346.853 109.985C346.98 110.187 347.166 110.288 347.409 110.288C347.575 110.275 347.71 110.237 347.812 110.174C347.927 110.099 348.048 109.992 348.176 109.853L348.445 110.08C348.1 110.471 347.729 110.748 347.332 110.912C346.936 111.088 346.456 111.176 345.893 111.176C345.203 111.176 344.633 111.032 344.186 110.742C343.738 110.452 343.444 109.916 343.303 109.134L342.958 107.244C342.868 106.714 342.759 106.254 342.632 105.863C342.504 105.46 342.325 105.145 342.094 104.918C341.877 104.679 341.57 104.559 341.173 104.559H339.101L339.063 104.237Z" fill="#A5CD38"/>
<path d="M355.129 97.4874L359.791 109.324C359.97 109.777 360.169 110.092 360.386 110.269C360.616 110.433 360.821 110.521 361 110.534V110.912C360.616 110.887 360.162 110.874 359.638 110.874C359.126 110.861 358.608 110.855 358.084 110.855C357.495 110.855 356.939 110.861 356.415 110.874C355.89 110.874 355.474 110.887 355.167 110.912V110.534C355.82 110.508 356.229 110.401 356.395 110.212C356.574 110.01 356.536 109.588 356.28 108.945L353.019 100.153L353.364 99.6618L350.448 107.149C350.166 107.842 349.994 108.41 349.93 108.851C349.878 109.292 349.91 109.632 350.026 109.872C350.153 110.111 350.352 110.282 350.62 110.382C350.902 110.471 351.234 110.521 351.618 110.534V110.912C351.196 110.887 350.793 110.874 350.409 110.874C350.026 110.861 349.635 110.855 349.239 110.855C348.958 110.855 348.689 110.861 348.433 110.874C348.19 110.874 347.973 110.887 347.781 110.912V110.534C348.049 110.483 348.324 110.313 348.606 110.023C348.887 109.733 349.162 109.242 349.431 108.548L353.805 97.4874C354.01 97.5 354.227 97.5063 354.458 97.5063C354.701 97.5063 354.924 97.5 355.129 97.4874ZM356.472 105.466V105.845H350.755L350.947 105.466H356.472Z" fill="#A5CD38"/>
<rect x="145" y="86.9749" width="216" height="3.02521" rx="1.51261" fill="#D9D9D9"/>
</svg>
