<svg width="350" height="118" viewBox="0 0 350 118" fill="none" xmlns="http://www.w3.org/2000/svg">
<path d="M67.3078 0.816996C66.5811 1.27084 65.5819 1.45238 64.9461 1.27084C64.4011 0.998534 63.1294 1.63392 62.2211 2.72315C61.3128 3.72161 59.8594 4.53853 59.0419 4.53853C58.2244 4.53853 56.4078 5.71853 54.9544 7.26161C53.5011 8.71392 51.8661 9.98469 51.3211 9.98469C50.6853 9.98469 49.5044 10.8016 48.5961 11.8001C47.6878 12.7985 46.6886 13.4339 46.3253 13.1616C45.2353 12.5262 39.0586 17.2462 39.0586 18.6985C39.0586 19.5155 41.0569 23.5093 43.5094 27.5939C49.0503 36.8524 50.8669 40.6647 50.8669 42.8431C50.8669 44.8401 54.0461 51.3755 55.4994 52.2831C56.0444 52.5555 55.8628 51.9201 55.1361 50.7401C54.4094 49.5601 53.3194 45.4755 52.6836 41.7539C52.0478 37.8508 50.2311 31.9508 48.4144 27.8662C46.5978 24.0539 45.3261 20.6955 45.5078 20.5139C47.7786 18.3355 67.1261 6.35392 68.3069 6.35392C71.3044 6.35392 77.1178 12.7078 80.8419 20.1508C82.8403 24.1447 84.4753 28.4108 84.4753 29.5001C84.4753 33.2216 78.9344 39.3031 70.3053 44.9308C65.6728 47.9262 61.2219 50.9216 60.3136 51.4662C59.3144 52.1016 60.2228 52.0108 62.2211 51.1939C64.2194 50.377 67.6711 49.197 69.7603 48.5616C71.9403 47.8355 74.3928 46.7462 75.2103 46.0201C76.1186 45.2031 77.7536 44.477 78.9344 44.2955C80.1153 44.2047 81.5686 43.2062 82.1136 42.2985C82.6586 41.3001 84.4753 39.3031 86.1103 37.7601C87.6544 36.217 89.0169 34.3108 89.0169 33.5847C89.0169 32.7678 89.4711 31.6785 90.0161 31.1339C91.2878 29.8631 90.1069 22.1478 88.4719 20.4231C87.7453 19.7878 87.2003 18.3355 87.2003 17.337C87.2003 16.2478 86.3828 14.977 85.3836 14.3416C84.3844 13.7062 83.5669 12.3447 83.5669 11.437C83.5669 9.25853 76.7544 2.72315 74.4836 2.72315C73.6661 2.72315 72.3944 2.08776 71.7586 1.36161C70.4869 -0.181466 69.1244 -0.363004 67.3078 0.816996Z" fill="white"/>
<path d="M27.4324 24.9613C26.2516 25.5966 24.5258 26.9582 23.5266 28.0474C22.5274 29.0459 21.1649 29.9536 20.5291 29.9536C19.8024 29.9536 18.8033 30.5889 18.1674 31.3151C17.5316 32.0413 16.1691 32.6766 15.0791 32.6766C13.9891 32.6766 11.7183 33.6751 9.99243 34.9459C8.2666 36.2166 6.54076 37.2151 6.0866 37.2151C5.72326 37.2151 4.26993 38.4859 2.90743 40.1197C0.99993 42.2982 0.45493 44.1136 0.273263 47.7443C0.18243 50.4674 0.45493 52.8274 0.909097 53.0997C1.4541 53.4628 1.81743 54.8243 1.81743 56.2766C1.81743 58.0013 2.45326 59.272 3.6341 59.9074C4.63326 60.452 5.45076 61.632 5.45076 62.6305C5.45076 63.5382 6.17743 64.8997 7.08576 65.5351C7.90326 66.1705 9.17493 67.8043 9.71993 69.1659C10.3558 70.6182 11.4458 71.7074 12.1724 71.7074C12.9899 71.7074 13.9891 72.4336 14.4433 73.432C15.4424 75.2474 22.4366 76.6997 24.0716 75.3382C24.5258 74.9751 26.9783 74.3397 29.5216 73.8859C32.6099 73.432 34.5174 72.6151 35.6983 71.1628C36.6066 69.9828 37.8783 68.9843 38.5141 68.9843C39.0591 68.9843 42.4199 66.2613 45.9624 62.9936L52.2299 57.0028L45.8716 60.8151C32.6099 68.9843 22.5274 72.0705 18.4399 69.3474C15.6241 67.532 7.53993 55.2782 6.17743 50.7397C4.54243 45.112 5.90493 43.3874 15.6241 38.4859C20.2566 36.1259 25.1616 33.4936 26.5241 32.5859C27.7958 31.5874 29.1583 30.8613 29.4308 30.8613C29.7033 30.8613 31.9741 33.6751 34.5174 37.1243C36.9699 40.4828 40.6033 44.4766 42.4199 45.8382C44.3274 47.2905 47.2341 49.6505 48.9599 51.1936L51.9574 54.0074L50.0499 50.1951C49.0508 48.1074 47.3249 46.2013 46.3258 45.8382C45.3266 45.5659 44.5091 44.6582 44.5091 44.0228C44.5091 43.2966 43.7824 42.2074 42.8741 41.572C41.9658 40.9366 40.9666 39.7566 40.6033 39.0305C40.2399 38.3043 38.9683 36.0351 37.6966 34.0382C36.4249 32.0413 35.1533 29.772 34.8808 29.0459C34.0633 27.3213 30.7024 23.5997 30.0666 23.6905C29.7941 23.7813 28.6133 24.3259 27.4324 24.9613Z" fill="white"/>
<path d="M86.7473 43.4784C85.2939 44.2953 82.0239 46.1107 79.5714 47.4722C77.1189 48.8337 74.3939 49.923 73.4856 49.923C72.5773 49.923 71.5781 50.2861 71.3056 50.8307C71.0331 51.2845 69.9431 51.7384 68.9439 51.7384C67.1273 51.7384 58.1348 55.9137 58.1348 56.8214C58.1348 57.003 58.9523 56.8214 59.9514 56.2768C60.9506 55.7322 65.3106 54.9153 69.5798 54.3707C74.3939 53.7353 79.8439 52.3737 83.6589 50.7399C89.6539 48.1984 91.7431 48.0168 91.7431 50.0137C91.7431 50.4676 94.4681 55.2784 97.7381 60.7245C104.641 72.2522 104.732 73.7953 98.3739 78.6061C92.9239 82.7814 81.4789 87.3199 78.3906 86.5937C74.3939 85.5953 68.0356 78.243 63.2214 69.2568C60.6781 64.6276 58.5889 60.9968 58.4073 61.0876C58.0439 61.5414 60.9506 71.0722 62.5856 74.3399C63.4031 76.0645 64.0389 78.1522 64.1298 79.0599C64.3114 81.783 65.3106 83.5076 66.7639 83.5076C67.4906 83.5076 68.1264 84.0522 68.1264 84.6876C68.1264 85.323 69.1256 86.7753 70.3973 87.8645C71.6689 88.9537 72.6681 90.2245 72.6681 90.7691C72.6681 91.223 73.4856 91.6768 74.3939 91.6768C75.3931 91.6768 76.4831 92.0399 76.7556 92.5845C77.4823 93.6737 81.4789 93.7645 82.1148 92.6753C82.3873 92.2214 83.3864 92.0399 84.2948 92.3122C85.2031 92.4937 86.6564 91.8584 87.5648 90.8599C88.5639 89.7707 90.1989 88.9537 91.2889 88.9537C92.4698 88.9537 93.8323 88.3184 94.4681 87.5922C95.1039 86.8661 96.3756 86.2307 97.2839 86.2307C99.4639 86.2307 105.096 80.7845 107.276 76.5184C109.274 72.7061 108.911 66.2614 106.64 64.3553C105.913 63.8107 105.368 62.5399 105.368 61.5414C105.368 60.6337 104.369 58.8184 103.097 57.5476C101.826 56.2768 100.826 54.7337 100.826 54.0984C100.826 53.463 100.009 52.1922 99.1006 51.3753C98.1014 50.4676 97.3748 49.1061 97.4656 48.2891C97.4656 47.3814 96.8298 45.6568 95.9214 44.2045C94.0139 41.3907 91.0164 41.1184 86.7473 43.4784Z" fill="white"/>
<path d="M61.8695 13.5243C60.4161 14.3412 57.1461 16.3381 54.6936 17.972C52.1503 19.6058 49.607 20.8766 48.9711 20.8766C47.0636 20.8766 47.6086 22.7828 50.9695 28.4105C52.6953 31.3151 54.6028 35.5812 55.1478 37.9412C55.602 40.3012 56.692 43.1151 57.4186 44.2043L58.6903 46.292L63.3228 44.4766C70.4078 41.8443 77.8561 37.1243 79.6728 34.0381C80.6719 32.4951 81.3986 30.4074 81.3986 29.2274C81.3986 26.3228 77.2203 18.2443 73.8595 14.7043L71.0436 11.7997L67.8645 11.8905C66.0478 11.8905 63.4136 12.6166 61.8695 13.5243Z" fill="white"/>
<path d="M26.4446 35.3997C26.0813 35.9443 22.6296 38.032 18.633 40.0289L11.3663 43.6597L10.458 46.0197C10.0038 47.2905 9.82214 49.7413 10.1855 51.3751C10.9121 55.1874 16.998 64.8089 19.5413 66.1705C20.5405 66.7151 22.5388 67.1689 23.9921 67.1689C27.2621 67.1689 35.8005 62.812 41.0688 58.4551L44.8838 55.3689L44.4296 53.4628C44.1571 52.4643 42.1588 50.1951 40.0696 48.3797C37.9805 46.6551 34.8921 42.752 33.1663 39.8474L30.1688 34.492H28.6246C27.7163 34.492 26.7171 34.9459 26.4446 35.3997Z" fill="white"/>
<path d="M83.3972 53.554C80.763 55.097 76.3122 56.8217 73.4055 57.2755C70.5897 57.8201 67.5014 58.637 66.593 59.1817L64.8672 60.0894L65.503 62.4494C65.7755 63.8109 67.683 68.2586 69.6814 72.434L73.3147 79.9678L76.2214 81.6924C77.8564 82.6909 79.9455 83.5078 80.9447 83.5078C83.5789 83.5078 93.7522 78.5155 96.3864 75.8832L98.6572 73.614V70.2555V66.897L95.0239 61.1786C93.1164 58.0924 91.2089 54.4617 90.8455 53.1909C90.573 51.9201 89.8464 50.8309 89.2105 50.8309C88.6655 50.8309 86.0314 52.1017 83.3972 53.554Z" fill="white"/>
<path d="M48.6995 68.2584C47.7003 69.8922 46.7012 72.9784 46.3378 75.0661L45.7928 78.9692H43.7037C42.5228 78.9692 40.8878 79.6045 40.1612 80.4215L38.7078 81.783V85.2322V88.5907L35.5287 90.1338L32.3495 91.6768V93.3107C32.3495 94.3092 33.167 96.1245 34.1662 97.3953C35.1653 98.6661 35.9828 100.209 35.9828 100.754V101.843L33.9845 101.208C32.8037 100.935 29.9878 100.391 27.6262 100.118L23.2662 99.5738L22.7212 101.117C21.8128 103.568 23.1753 107.198 26.1728 110.012L28.8978 112.554H26.627C23.5387 112.554 22.7212 114.097 24.7195 116.275C26.5362 118.272 28.262 118.545 27.5353 116.82L27.0812 115.549L30.6237 116.185C32.5312 116.548 34.3478 116.638 34.6203 116.366C35.7103 115.186 34.8928 111.555 32.8945 109.195L30.7145 106.654L34.6203 106.926L38.4353 107.289L39.9795 105.655L41.6145 104.112L41.1603 100.845C40.8878 99.0292 40.5245 96.7599 40.3428 95.7615L40.0703 94.0368L42.7953 93.4922L45.5203 93.0384L45.7928 91.4045C45.9745 90.4968 45.4295 88.6815 44.612 87.4107L43.0678 85.0507L44.2487 84.3245C44.9753 83.8707 46.7012 83.5076 48.0637 83.5076H50.607L49.9712 78.243L49.4262 72.9784L50.8795 69.5292C52.6053 65.4445 52.6053 65.3538 51.4245 65.3538C50.8795 65.3538 49.6987 66.6245 48.6995 68.2584Z" fill="white"/>
<path d="M134 17.996C135.178 18.0434 136.756 18.0909 138.735 18.1383C140.762 18.1857 142.764 18.2094 144.743 18.2094C147.005 18.2094 149.196 18.1857 151.316 18.1383C153.437 18.0909 154.945 18.0671 155.84 18.0671C162.389 18.0671 167.29 19.3714 170.541 21.98C173.792 24.5885 175.418 27.9559 175.418 32.0822C175.418 33.7896 175.088 35.5919 174.428 37.489C173.769 39.3387 172.638 41.0698 171.036 42.6824C169.481 44.2475 167.337 45.5281 164.604 46.5241C161.871 47.52 158.431 48.018 154.285 48.018H147.076V46.5952H153.578C156.358 46.5952 158.455 45.9549 159.869 44.6744C161.329 43.3938 162.319 41.7101 162.837 39.6233C163.402 37.5364 163.685 35.2836 163.685 32.8647C163.685 28.3591 163.026 24.9917 161.706 22.7625C160.387 20.5334 158.125 19.4188 154.921 19.4188C153.083 19.4188 151.882 19.822 151.316 20.6283C150.798 21.4345 150.539 23.0708 150.539 25.5371V60.3968C150.539 62.2465 150.727 63.6219 151.104 64.5231C151.481 65.4242 152.212 66.017 153.295 66.3016C154.379 66.5862 155.981 66.7522 158.102 66.7996V68.3647C156.641 68.3173 154.756 68.2699 152.447 68.2225C150.138 68.175 147.712 68.1513 145.167 68.1513C143.141 68.1513 141.162 68.175 139.23 68.2225C137.298 68.2699 135.555 68.3173 134 68.3647V66.9419C135.508 66.847 136.639 66.6573 137.393 66.3728C138.147 66.0882 138.641 65.519 138.877 64.6653C139.16 63.8116 139.301 62.5311 139.301 60.8237V25.5371C139.301 23.7822 139.16 22.5017 138.877 21.6954C138.641 20.8417 138.123 20.2725 137.322 19.988C136.568 19.656 135.461 19.4663 134 19.4188V17.996Z" fill="white"/>
<path d="M216.747 17.996C216.558 20.0828 216.417 22.0985 216.323 24.0431C216.276 25.9876 216.252 27.4816 216.252 28.5251C216.252 29.4736 216.276 30.3748 216.323 31.2285C216.37 32.0822 216.417 32.7936 216.464 33.3627H214.839C214.367 29.9005 213.637 27.1734 212.648 25.1814C211.658 23.142 210.362 21.7191 208.76 20.9128C207.205 20.0591 205.368 19.6323 203.247 19.6323H200.349C198.983 19.6323 197.946 19.7508 197.239 19.988C196.533 20.2251 196.062 20.6994 195.826 21.4108C195.59 22.1222 195.473 23.2131 195.473 24.6834V61.6774C195.473 63.1476 195.59 64.2385 195.826 64.9499C196.062 65.6613 196.533 66.1356 197.239 66.3728C197.946 66.6099 198.983 66.7285 200.349 66.7285H203.813C205.933 66.7285 207.794 66.2779 209.396 65.3768C211.045 64.4282 212.435 62.8394 213.566 60.6102C214.744 58.3811 215.64 55.3694 216.252 51.5752H217.878C217.736 53.0929 217.666 55.0848 217.666 57.5511C217.666 58.642 217.689 60.1834 217.736 62.1754C217.784 64.1673 217.925 66.2305 218.16 68.3647C215.757 68.2699 213.048 68.2225 210.032 68.2225C207.017 68.175 204.331 68.1513 201.975 68.1513C200.797 68.1513 199.289 68.1513 197.452 68.1513C195.614 68.1513 193.635 68.175 191.514 68.2225C189.394 68.2225 187.25 68.2462 185.083 68.2936C182.915 68.2936 180.866 68.3173 178.934 68.3647V66.9419C180.441 66.847 181.572 66.6573 182.326 66.3728C183.08 66.0882 183.575 65.519 183.81 64.6653C184.093 63.8116 184.235 62.5311 184.235 60.8237V25.5371C184.235 23.7822 184.093 22.5017 183.81 21.6954C183.575 20.8417 183.057 20.2725 182.256 19.988C181.502 19.656 180.394 19.4663 178.934 19.4188V17.996C180.866 18.0434 182.915 18.0909 185.083 18.1383C187.25 18.1383 189.394 18.162 191.514 18.2094C193.635 18.2094 195.614 18.2094 197.452 18.2094C199.289 18.2094 200.797 18.2094 201.975 18.2094C204.142 18.2094 206.593 18.2094 209.326 18.2094C212.106 18.162 214.579 18.0909 216.747 17.996ZM205.721 42.3267C205.721 42.3267 205.721 42.5638 205.721 43.0381C205.721 43.5124 205.721 43.7495 205.721 43.7495H193.352C193.352 43.7495 193.352 43.5124 193.352 43.0381C193.352 42.5638 193.352 42.3267 193.352 42.3267H205.721ZM207.771 32.9359C207.582 35.6393 207.488 37.7024 207.488 39.1253C207.535 40.5481 207.559 41.8524 207.559 43.0381C207.559 44.2238 207.582 45.5281 207.629 46.9509C207.676 48.3738 207.794 50.4369 207.983 53.1403H206.357C206.121 51.4803 205.674 49.9389 205.014 48.516C204.402 47.0932 203.506 45.9549 202.328 45.1012C201.15 44.2001 199.619 43.7495 197.734 43.7495V42.3267C199.148 42.3267 200.349 42.0421 201.339 41.473C202.328 40.8564 203.129 40.0738 203.742 39.1253C204.402 38.1293 204.92 37.0858 205.297 35.995C205.674 34.9041 205.957 33.8844 206.145 32.9359H207.771Z" fill="white"/>
<path d="M275.325 67.511L276.597 67.8667C276.22 70.4753 275.631 72.7044 274.83 74.5541C274.029 76.4512 272.992 77.9215 271.72 78.9649C270.731 79.7712 269.435 80.4352 267.833 80.9569C266.278 81.4786 264.535 81.7395 262.603 81.7395C260.011 81.7395 257.467 81.3364 254.969 80.5301C252.519 79.7238 250.022 78.7278 247.477 77.5421C244.933 76.4038 242.247 75.2893 239.42 74.1984C239.09 74.1036 238.76 73.985 238.43 73.8427C238.148 73.7478 237.912 73.7004 237.724 73.7004C236.828 74.1273 235.839 74.483 234.755 74.7675C233.719 75.0521 232.729 75.1944 231.787 75.1944C230.844 75.1944 230.043 75.0521 229.384 74.7675C228.771 74.483 228.465 74.0087 228.465 73.3447C228.465 72.0641 229.76 71.4239 232.352 71.4239C234.001 71.4239 235.792 71.7559 237.724 72.4199C239.467 71.9456 240.951 71.4001 242.176 70.7836C243.449 70.2144 244.744 69.669 246.064 69.1473C247.43 68.6256 249.079 68.2936 251.011 68.1513L251.082 69.2896C249.574 69.4319 248.278 69.6927 247.195 70.0722C246.158 70.499 245.098 70.9496 244.014 71.4239C242.93 71.8981 241.658 72.3487 240.197 72.7756C243.543 73.0127 246.653 73.2498 249.527 73.487C252.401 73.7716 255.064 73.9376 257.514 73.985C259.964 74.0798 262.179 73.985 264.158 73.7004C267.079 73.3684 269.388 72.7281 271.084 71.7796C272.78 70.831 274.194 69.4082 275.325 67.511ZM249.386 17C254.38 17 258.739 18.0197 262.461 20.0591C266.231 22.0985 269.152 25.0391 271.225 28.8808C273.299 32.675 274.335 37.2993 274.335 42.7535C274.335 48.0655 273.275 52.7134 271.155 56.6974C269.034 60.6814 266.066 63.7879 262.249 66.017C258.48 68.2462 254.168 69.3607 249.315 69.3607C244.32 69.3607 239.938 68.341 236.169 66.3016C232.446 64.2622 229.548 61.3217 227.475 57.48C225.402 53.6383 224.365 49.014 224.365 43.6072C224.365 38.2953 225.425 33.6473 227.546 29.6633C229.713 25.6794 232.658 22.5728 236.381 20.3437C240.15 18.1146 244.485 17 249.386 17ZM249.103 18.2806C246.464 18.2806 244.155 19.3477 242.176 21.482C240.245 23.6162 238.737 26.5568 237.653 30.3036C236.616 34.0504 236.098 38.3901 236.098 43.3227C236.098 48.35 236.687 52.7371 237.865 56.484C239.09 60.1834 240.716 63.0528 242.742 65.0922C244.815 67.0842 247.1 68.0802 249.598 68.0802C252.236 68.0802 254.522 67.013 256.454 64.8788C258.433 62.7445 259.94 59.804 260.977 56.0571C262.061 52.2629 262.603 47.9232 262.603 43.0381C262.603 37.9633 261.99 33.5762 260.765 29.8768C259.587 26.1774 257.961 23.3317 255.888 21.3397C253.862 19.3003 251.6 18.2806 249.103 18.2806Z" fill="white"/>
<path d="M324.453 17.996V19.4188C322.945 19.6086 321.791 20.0117 320.99 20.6283C320.236 21.1974 319.741 22.1222 319.505 23.4028C319.27 24.6834 319.152 26.4856 319.152 28.8096V47.6623C319.152 50.7452 318.94 53.5671 318.516 56.1283C318.092 58.6894 317.338 60.8948 316.254 62.7445C315.029 64.7839 313.238 66.3965 310.882 67.5822C308.527 68.7679 305.534 69.3607 301.906 69.3607C299.739 69.3607 297.524 69.0999 295.262 68.5782C293.001 68.1039 290.975 67.179 289.184 65.8036C287.676 64.5231 286.522 63.0765 285.721 61.4639C284.92 59.8514 284.378 57.9543 284.095 55.7726C283.812 53.5434 283.671 50.9112 283.671 47.8758V25.5371C283.671 23.7822 283.53 22.5017 283.247 21.6954C283.011 20.8417 282.517 20.2725 281.763 19.988C281.009 19.656 279.878 19.4663 278.37 19.4188V17.996C279.548 18.0434 281.127 18.0909 283.106 18.1383C285.132 18.1857 287.229 18.2094 289.396 18.2094C291.564 18.2094 293.637 18.1857 295.616 18.1383C297.642 18.0909 299.315 18.0434 300.634 17.996V19.4188C299.032 19.4663 297.807 19.656 296.959 19.988C296.158 20.2725 295.616 20.8417 295.333 21.6954C295.05 22.5017 294.909 23.7822 294.909 25.5371V52.3577C294.909 54.7291 295.05 56.8397 295.333 58.6894C295.663 60.4917 296.181 62.0094 296.888 63.2425C297.642 64.4282 298.655 65.3293 299.927 65.9459C301.199 66.5625 302.778 66.8708 304.663 66.8708C307.961 66.8708 310.529 66.0882 312.367 64.5231C314.252 62.9579 315.571 60.7999 316.325 58.0491C317.126 55.2508 317.526 52.0494 317.526 48.4449V29.6633C317.526 27.0548 317.361 25.0628 317.032 23.6874C316.702 22.2645 316.042 21.2448 315.053 20.6283C314.11 20.0117 312.649 19.6086 310.67 19.4188V17.996C311.566 18.0434 312.744 18.0909 314.204 18.1383C315.665 18.1857 317.032 18.2094 318.304 18.2094C319.435 18.2094 320.542 18.1857 321.626 18.1383C322.757 18.0909 323.699 18.0434 324.453 17.996Z" fill="white"/>
<path d="M350 17.996V19.4188C348.492 19.4663 347.338 19.656 346.537 19.988C345.783 20.2725 345.288 20.8417 345.052 21.6954C344.817 22.5017 344.699 23.7822 344.699 25.5371V60.8237C344.699 62.5311 344.817 63.8116 345.052 64.6653C345.335 65.519 345.853 66.0882 346.607 66.3728C347.361 66.6573 348.492 66.847 350 66.9419V68.3647C348.728 68.2699 347.126 68.2225 345.194 68.2225C343.262 68.175 341.306 68.1513 339.327 68.1513C337.019 68.1513 334.875 68.175 332.896 68.2225C330.964 68.2225 329.385 68.2699 328.16 68.3647V66.9419C329.668 66.847 330.799 66.6573 331.553 66.3728C332.307 66.0882 332.801 65.519 333.037 64.6653C333.32 63.8116 333.461 62.5311 333.461 60.8237V25.5371C333.461 23.7822 333.32 22.5017 333.037 21.6954C332.801 20.8417 332.283 20.2725 331.482 19.988C330.728 19.656 329.621 19.4663 328.16 19.4188V17.996C329.385 18.0434 330.964 18.0909 332.896 18.1383C334.875 18.1857 337.019 18.2094 339.327 18.2094C341.306 18.2094 343.262 18.1857 345.194 18.1383C347.126 18.0909 348.728 18.0434 350 17.996Z" fill="white"/>
<path d="M134 87.004C134.32 87.0166 134.748 87.0292 135.285 87.0418C135.835 87.0544 136.379 87.0607 136.916 87.0607C137.53 87.0607 138.125 87.0544 138.701 87.0418C139.276 87.0292 139.685 87.0229 139.928 87.0229C141.706 87.0229 143.037 87.3695 143.919 88.0628C144.802 88.7561 145.243 89.651 145.243 90.7477C145.243 91.2014 145.154 91.6804 144.974 92.1846C144.795 92.6762 144.488 93.1363 144.054 93.5649C143.631 93.9809 143.049 94.3212 142.308 94.5859C141.566 94.8506 140.632 94.983 139.506 94.983H137.549V94.6048H139.315C140.069 94.6048 140.638 94.4346 141.022 94.0943C141.419 93.754 141.687 93.3065 141.828 92.7519C141.981 92.1972 142.058 91.5985 142.058 90.9556C142.058 89.7582 141.879 88.8632 141.521 88.2708C141.163 87.6783 140.549 87.3821 139.679 87.3821C139.18 87.3821 138.854 87.4893 138.701 87.7035C138.56 87.9178 138.49 88.3527 138.49 89.0082V98.2729C138.49 98.7645 138.541 99.13 138.643 99.3695C138.745 99.609 138.944 99.7666 139.238 99.8422C139.532 99.9178 139.967 99.9619 140.542 99.9746V100.391C140.146 100.378 139.634 100.365 139.008 100.353C138.381 100.34 137.722 100.334 137.031 100.334C136.481 100.334 135.944 100.34 135.42 100.353C134.895 100.365 134.422 100.378 134 100.391V100.012C134.409 99.9872 134.716 99.9367 134.921 99.8611C135.126 99.7855 135.26 99.6342 135.324 99.4073C135.401 99.1804 135.439 98.8401 135.439 98.3863V89.0082C135.439 88.5418 135.401 88.2014 135.324 87.9872C135.26 87.7603 135.119 87.609 134.902 87.5334C134.697 87.4451 134.397 87.3947 134 87.3821V87.004Z" fill="white"/>
<path d="M153.256 86.7393C154.611 86.7393 155.795 87.0103 156.805 87.5523C157.828 88.0943 158.621 88.8758 159.184 89.8968C159.747 90.9052 160.028 92.1342 160.028 93.5838C160.028 94.9956 159.741 96.2309 159.165 97.2897C158.589 98.3485 157.784 99.1741 156.747 99.7666C155.724 100.359 154.554 100.655 153.236 100.655C151.881 100.655 150.691 100.384 149.668 99.8422C148.657 99.3002 147.871 98.5187 147.308 97.4977C146.745 96.4767 146.464 95.2477 146.464 93.8107C146.464 92.3989 146.752 91.1636 147.327 90.1048C147.916 89.046 148.715 88.2204 149.725 87.6279C150.749 87.0355 151.925 86.7393 153.256 86.7393ZM153.179 87.0796C152.463 87.0796 151.836 87.3632 151.299 87.9304C150.774 88.4977 150.365 89.2792 150.071 90.275C149.789 91.2708 149.649 92.4241 149.649 93.7351C149.649 95.0712 149.809 96.2372 150.128 97.233C150.461 98.2161 150.902 98.9788 151.452 99.5208C152.015 100.05 152.635 100.315 153.313 100.315C154.029 100.315 154.65 100.031 155.174 99.464C155.711 98.8968 156.121 98.1153 156.402 97.1195C156.696 96.1111 156.843 94.9577 156.843 93.6594C156.843 92.3107 156.677 91.1447 156.345 90.1615C156.025 89.1783 155.584 88.422 155.021 87.8926C154.471 87.3506 153.857 87.0796 153.179 87.0796Z" fill="white"/>
<path d="M173.633 87.004V87.3821C173.224 87.4325 172.91 87.5397 172.693 87.7035C172.488 87.8548 172.354 88.1006 172.29 88.4409C172.226 88.7813 172.194 89.2603 172.194 89.8779V94.8884C172.194 95.7077 172.136 96.4577 172.021 97.1384C171.906 97.8191 171.701 98.4052 171.407 98.8968C171.075 99.4388 170.589 99.8674 169.949 100.183C169.31 100.498 168.497 100.655 167.513 100.655C166.924 100.655 166.323 100.586 165.709 100.447C165.095 100.321 164.545 100.075 164.059 99.7098C163.65 99.3695 163.336 98.9851 163.119 98.5565C162.901 98.1279 162.754 97.6237 162.678 97.0439C162.601 96.4514 162.563 95.7519 162.563 94.9451V89.0082C162.563 88.5418 162.524 88.2014 162.447 87.9872C162.383 87.7603 162.249 87.609 162.044 87.5334C161.84 87.4451 161.533 87.3947 161.124 87.3821V87.004C161.443 87.0166 161.872 87.0292 162.409 87.0418C162.959 87.0544 163.528 87.0607 164.117 87.0607C164.705 87.0607 165.268 87.0544 165.805 87.0418C166.355 87.0292 166.809 87.0166 167.167 87.004V87.3821C166.732 87.3947 166.4 87.4451 166.17 87.5334C165.952 87.609 165.805 87.7603 165.728 87.9872C165.651 88.2014 165.613 88.5418 165.613 89.0082V96.1363C165.613 96.7666 165.651 97.3275 165.728 97.8191C165.818 98.2981 165.958 98.7014 166.15 99.0292C166.355 99.3443 166.63 99.5838 166.975 99.7477C167.321 99.9115 167.749 99.9935 168.261 99.9935C169.156 99.9935 169.853 99.7855 170.352 99.3695C170.864 98.9535 171.222 98.38 171.426 97.6489C171.644 96.9052 171.753 96.0544 171.753 95.0964V90.1048C171.753 89.4115 171.708 88.8821 171.618 88.5166C171.529 88.1384 171.35 87.8674 171.081 87.7035C170.825 87.5397 170.429 87.4325 169.892 87.3821V87.004C170.135 87.0166 170.454 87.0292 170.851 87.0418C171.247 87.0544 171.618 87.0607 171.964 87.0607C172.271 87.0607 172.571 87.0544 172.865 87.0418C173.172 87.0292 173.428 87.0166 173.633 87.004Z" fill="white"/>
<path d="M179.436 86.7582C180.19 86.7582 180.772 86.8401 181.182 87.004C181.591 87.1552 181.943 87.3191 182.237 87.4956C182.39 87.5838 182.512 87.6531 182.601 87.7035C182.704 87.7414 182.8 87.7603 182.889 87.7603C183.017 87.7603 183.107 87.6909 183.158 87.5523C183.222 87.4136 183.273 87.2056 183.311 86.9283H183.753C183.74 87.1678 183.721 87.4577 183.695 87.7981C183.682 88.1258 183.67 88.5607 183.657 89.1027C183.657 89.6447 183.657 90.3569 183.657 91.2393H183.215C183.164 90.5838 183.011 89.9472 182.755 89.3296C182.499 88.7119 182.135 88.2077 181.661 87.817C181.201 87.4136 180.632 87.2119 179.954 87.2119C179.34 87.2119 178.835 87.3821 178.438 87.7225C178.042 88.0628 177.843 88.5355 177.843 89.1405C177.843 89.6447 177.971 90.0796 178.227 90.4451C178.483 90.7981 178.854 91.1447 179.34 91.4851C179.839 91.8254 180.44 92.2351 181.143 92.714C181.757 93.1048 182.307 93.4956 182.793 93.8863C183.279 94.2771 183.67 94.7182 183.964 95.2098C184.258 95.7014 184.405 96.2876 184.405 96.9682C184.405 97.8002 184.181 98.4872 183.733 99.0292C183.299 99.5712 182.723 99.9809 182.007 100.258C181.29 100.523 180.504 100.655 179.647 100.655C178.854 100.655 178.221 100.58 177.747 100.428C177.274 100.277 176.878 100.12 176.558 99.9556C176.276 99.7792 176.059 99.6909 175.906 99.6909C175.778 99.6909 175.682 99.7603 175.618 99.8989C175.567 100.038 175.522 100.246 175.483 100.523H175.042C175.068 100.22 175.081 99.8674 175.081 99.464C175.093 99.0607 175.1 98.5376 175.1 97.8947C175.113 97.2393 175.119 96.4136 175.119 95.4178H175.56C175.611 96.2498 175.752 97.0313 175.982 97.7624C176.225 98.4809 176.59 99.0607 177.076 99.5019C177.575 99.943 178.233 100.164 179.052 100.164C179.5 100.164 179.896 100.088 180.242 99.9367C180.6 99.7729 180.888 99.5334 181.105 99.2182C181.322 98.9031 181.431 98.5124 181.431 98.046C181.431 97.5166 181.303 97.0565 181.047 96.6657C180.804 96.275 180.465 95.9094 180.031 95.5691C179.608 95.2288 179.116 94.8821 178.553 94.5292C177.952 94.1384 177.389 93.7477 176.865 93.3569C176.34 92.9661 175.918 92.5187 175.599 92.0145C175.292 91.5103 175.138 90.9115 175.138 90.2182C175.138 89.4241 175.336 88.775 175.733 88.2708C176.142 87.754 176.673 87.3758 177.325 87.1363C177.99 86.8842 178.694 86.7582 179.436 86.7582Z" fill="white"/>
<path d="M192.008 86.9661L196.67 98.8023C196.849 99.2561 197.048 99.5712 197.265 99.7477C197.495 99.9115 197.7 99.9998 197.879 100.012V100.391C197.495 100.365 197.041 100.353 196.517 100.353C196.005 100.34 195.487 100.334 194.963 100.334C194.374 100.334 193.818 100.34 193.294 100.353C192.769 100.353 192.354 100.365 192.047 100.391V100.012C192.699 99.9872 193.108 99.88 193.274 99.6909C193.454 99.4893 193.415 99.067 193.159 98.4241L189.898 89.6321L190.243 89.1405L187.327 96.6279C187.045 97.3212 186.873 97.8884 186.809 98.3296C186.758 98.7708 186.79 99.1111 186.905 99.3506C187.033 99.5901 187.231 99.7603 187.499 99.8611C187.781 99.9493 188.113 99.9998 188.497 100.012V100.391C188.075 100.365 187.672 100.353 187.288 100.353C186.905 100.34 186.515 100.334 186.118 100.334C185.837 100.334 185.568 100.34 185.312 100.353C185.069 100.353 184.852 100.365 184.66 100.391V100.012C184.929 99.9619 185.204 99.7918 185.485 99.5019C185.766 99.2119 186.041 98.7203 186.31 98.0271L190.684 86.9661C190.889 86.9788 191.106 86.9851 191.337 86.9851C191.58 86.9851 191.804 86.9788 192.008 86.9661ZM193.351 94.9451V95.3233H187.634L187.826 94.9451H193.351Z" fill="white"/>
<path d="M203.951 87.004C206.471 87.004 208.344 87.5712 209.572 88.7056C210.8 89.8275 211.414 91.4409 211.414 93.546C211.414 94.9199 211.114 96.1237 210.512 97.1573C209.911 98.1783 209.035 98.9725 207.884 99.5397C206.746 100.107 205.377 100.391 203.778 100.391C203.573 100.391 203.305 100.384 202.972 100.372C202.64 100.359 202.294 100.353 201.936 100.353C201.578 100.34 201.258 100.334 200.977 100.334C200.414 100.334 199.858 100.34 199.308 100.353C198.771 100.353 198.342 100.365 198.022 100.391V100.012C198.432 99.9872 198.739 99.9367 198.943 99.8611C199.148 99.7855 199.282 99.6342 199.346 99.4073C199.423 99.1804 199.461 98.8401 199.461 98.3863V89.0082C199.461 88.5418 199.423 88.2014 199.346 87.9872C199.282 87.7603 199.141 87.609 198.924 87.5334C198.719 87.4451 198.419 87.3947 198.022 87.3821V87.004C198.342 87.0166 198.771 87.0355 199.308 87.0607C199.858 87.0733 200.401 87.0733 200.939 87.0607C201.399 87.0481 201.917 87.0355 202.493 87.0229C203.081 87.0103 203.567 87.004 203.951 87.004ZM203.932 87.3443C203.343 87.3443 202.96 87.4514 202.78 87.6657C202.601 87.88 202.512 88.3149 202.512 88.9704V98.4241C202.512 99.0796 202.601 99.5145 202.78 99.7288C202.972 99.943 203.362 100.05 203.951 100.05C205.025 100.05 205.869 99.8044 206.483 99.3128C207.11 98.8086 207.558 98.0775 207.826 97.1195C208.095 96.1615 208.229 94.9956 208.229 93.6216C208.229 92.2098 208.082 91.0439 207.788 90.1237C207.507 89.1909 207.053 88.4977 206.426 88.0439C205.799 87.5775 204.968 87.3443 203.932 87.3443Z" fill="white"/>
<path d="M218.745 86.9661L223.407 98.8023C223.586 99.2561 223.785 99.5712 224.002 99.7477C224.232 99.9115 224.437 99.9998 224.616 100.012V100.391C224.232 100.365 223.778 100.353 223.254 100.353C222.742 100.34 222.224 100.334 221.7 100.334C221.111 100.334 220.555 100.34 220.031 100.353C219.506 100.353 219.09 100.365 218.783 100.391V100.012C219.436 99.9872 219.845 99.88 220.011 99.6909C220.19 99.4893 220.152 99.067 219.896 98.4241L216.635 89.6321L216.98 89.1405L214.064 96.6279C213.782 97.3212 213.61 97.8884 213.546 98.3296C213.494 98.7708 213.526 99.1111 213.642 99.3506C213.769 99.5901 213.968 99.7603 214.236 99.8611C214.518 99.9493 214.85 99.9998 215.234 100.012V100.391C214.812 100.365 214.409 100.353 214.025 100.353C213.642 100.34 213.251 100.334 212.855 100.334C212.574 100.334 212.305 100.34 212.049 100.353C211.806 100.353 211.589 100.365 211.397 100.391V100.012C211.665 99.9619 211.94 99.7918 212.222 99.5019C212.503 99.2119 212.778 98.7203 213.047 98.0271L217.421 86.9661C217.626 86.9788 217.843 86.9851 218.074 86.9851C218.317 86.9851 218.54 86.9788 218.745 86.9661ZM220.088 94.9451V95.3233H214.371L214.562 94.9451H220.088Z" fill="white"/>
<path d="M229.612 87.004C229.932 87.0166 230.36 87.0292 230.897 87.0418C231.447 87.0544 231.991 87.0607 232.528 87.0607C233.142 87.0607 233.737 87.0544 234.312 87.0418C234.888 87.0292 235.297 87.0229 235.54 87.0229C237.318 87.0229 238.649 87.3695 239.531 88.0628C240.414 88.7561 240.855 89.651 240.855 90.7477C240.855 91.2014 240.765 91.6804 240.586 92.1846C240.407 92.6762 240.1 93.1363 239.665 93.5649C239.243 93.9809 238.661 94.3212 237.919 94.5859C237.178 94.8506 236.244 94.983 235.118 94.983H233.161V94.6048H234.926C235.681 94.6048 236.25 94.4346 236.634 94.0943C237.03 93.754 237.299 93.3065 237.44 92.7519C237.593 92.1972 237.67 91.5985 237.67 90.9556C237.67 89.7582 237.491 88.8632 237.133 88.2708C236.775 87.6783 236.161 87.3821 235.291 87.3821C234.792 87.3821 234.466 87.4893 234.312 87.7035C234.172 87.9178 234.101 88.3527 234.101 89.0082V98.2729C234.101 98.7645 234.153 99.13 234.255 99.3695C234.357 99.609 234.555 99.7666 234.85 99.8422C235.144 99.9178 235.579 99.9619 236.154 99.9746V100.391C235.758 100.378 235.246 100.365 234.619 100.353C233.993 100.34 233.334 100.334 232.643 100.334C232.093 100.334 231.556 100.34 231.032 100.353C230.507 100.365 230.034 100.378 229.612 100.391V100.012C230.021 99.9872 230.328 99.9367 230.533 99.8611C230.737 99.7855 230.872 99.6342 230.936 99.4073C231.012 99.1804 231.051 98.8401 231.051 98.3863V89.0082C231.051 88.5418 231.012 88.2014 230.936 87.9872C230.872 87.7603 230.731 87.609 230.514 87.5334C230.309 87.4451 230.008 87.3947 229.612 87.3821V87.004Z" fill="white"/>
<path d="M247.224 86.9661L251.887 98.8023C252.066 99.2561 252.264 99.5712 252.481 99.7477C252.712 99.9115 252.916 99.9998 253.095 100.012V100.391C252.712 100.365 252.258 100.353 251.733 100.353C251.221 100.34 250.703 100.334 250.179 100.334C249.591 100.334 249.034 100.34 248.51 100.353C247.985 100.353 247.57 100.365 247.263 100.391V100.012C247.915 99.9872 248.324 99.88 248.491 99.6909C248.67 99.4893 248.631 99.067 248.376 98.4241L245.114 89.6321L245.459 89.1405L242.543 96.6279C242.262 97.3212 242.089 97.8884 242.025 98.3296C241.974 98.7708 242.006 99.1111 242.121 99.3506C242.249 99.5901 242.447 99.7603 242.716 99.8611C242.997 99.9493 243.33 99.9998 243.713 100.012V100.391C243.291 100.365 242.888 100.353 242.505 100.353C242.121 100.34 241.731 100.334 241.334 100.334C241.053 100.334 240.784 100.34 240.528 100.353C240.285 100.353 240.068 100.365 239.876 100.391V100.012C240.145 99.9619 240.42 99.7918 240.701 99.5019C240.983 99.2119 241.258 98.7203 241.526 98.0271L245.901 86.9661C246.105 86.9788 246.323 86.9851 246.553 86.9851C246.796 86.9851 247.02 86.9788 247.224 86.9661ZM248.567 94.9451V95.3233H242.85L243.042 94.9451H248.567Z" fill="white"/>
<path d="M265.882 87.004V87.3821C265.473 87.4325 265.166 87.5397 264.961 87.7035C264.757 87.8548 264.616 88.1006 264.539 88.4409C264.475 88.7813 264.443 89.2603 264.443 89.8779V100.428C264.29 100.416 264.13 100.409 263.963 100.409C263.81 100.409 263.644 100.416 263.465 100.428L255.138 90.0292V97.2897C255.138 97.983 255.176 98.5187 255.253 98.8968C255.33 99.2624 255.496 99.5271 255.752 99.6909C256.02 99.8422 256.436 99.9493 256.999 100.012V100.391C256.756 100.365 256.436 100.353 256.04 100.353C255.643 100.34 255.272 100.334 254.927 100.334C254.633 100.334 254.332 100.34 254.025 100.353C253.718 100.353 253.462 100.365 253.258 100.391V100.012C253.667 99.9493 253.974 99.8422 254.179 99.6909C254.383 99.5397 254.518 99.2939 254.582 98.9535C254.658 98.6006 254.697 98.1216 254.697 97.5166V89.0082C254.697 88.5418 254.658 88.2014 254.582 87.9872C254.518 87.7603 254.377 87.609 254.159 87.5334C253.955 87.4451 253.654 87.3947 253.258 87.3821V87.004C253.462 87.0166 253.718 87.0292 254.025 87.0418C254.332 87.0544 254.633 87.0607 254.927 87.0607C255.234 87.0607 255.528 87.0544 255.809 87.0418C256.091 87.0292 256.347 87.0166 256.577 87.004L264.002 96.0229V90.1048C264.002 89.4115 263.963 88.8821 263.887 88.5166C263.81 88.1384 263.637 87.8674 263.369 87.7035C263.113 87.5397 262.704 87.4325 262.141 87.3821V87.004C262.384 87.0166 262.704 87.0292 263.1 87.0418C263.497 87.0544 263.868 87.0607 264.213 87.0607C264.52 87.0607 264.82 87.0544 265.115 87.0418C265.422 87.0292 265.677 87.0166 265.882 87.004Z" fill="white"/>
<path d="M278.75 87.004C278.699 87.6468 278.66 88.2645 278.635 88.8569C278.622 89.4493 278.616 89.9031 278.616 90.2182C278.616 90.4956 278.622 90.7603 278.635 91.0124C278.647 91.2645 278.66 91.4788 278.673 91.6552H278.232C278.027 90.5964 277.765 89.7582 277.445 89.1405C277.138 88.5229 276.767 88.088 276.332 87.8359C275.897 87.5712 275.386 87.4388 274.797 87.4388H274.356V98.2351C274.356 98.7393 274.407 99.1174 274.51 99.3695C274.625 99.6216 274.829 99.7918 275.124 99.88C275.418 99.9556 275.846 99.9998 276.409 100.012V100.391C276.013 100.378 275.482 100.365 274.817 100.353C274.164 100.34 273.48 100.334 272.764 100.334C272.06 100.334 271.395 100.34 270.768 100.353C270.142 100.365 269.636 100.378 269.253 100.391V100.012C269.828 99.9998 270.263 99.9556 270.557 99.88C270.852 99.7918 271.05 99.6216 271.152 99.3695C271.254 99.1174 271.306 98.7393 271.306 98.2351V87.4388H270.884C270.295 87.4388 269.784 87.5712 269.349 87.8359C268.914 88.088 268.543 88.5229 268.236 89.1405C267.929 89.7456 267.66 90.5838 267.43 91.6552H266.989C267.014 91.4788 267.027 91.2645 267.027 91.0124C267.04 90.7603 267.046 90.4956 267.046 90.2182C267.046 89.9031 267.034 89.4493 267.008 88.8569C266.995 88.2645 266.963 87.6468 266.912 87.004C267.5 87.0166 268.14 87.0292 268.831 87.0418C269.534 87.0544 270.238 87.0607 270.941 87.0607C271.645 87.0607 272.278 87.0607 272.841 87.0607C273.416 87.0607 274.049 87.0607 274.74 87.0607C275.443 87.0607 276.147 87.0544 276.85 87.0418C277.554 87.0292 278.187 87.0166 278.75 87.004Z" fill="white"/>
<path d="M285.203 86.9661L289.865 98.8023C290.044 99.2561 290.243 99.5712 290.46 99.7477C290.69 99.9115 290.895 99.9998 291.074 100.012V100.391C290.69 100.365 290.236 100.353 289.712 100.353C289.2 100.34 288.682 100.334 288.158 100.334C287.569 100.334 287.013 100.34 286.489 100.353C285.964 100.353 285.548 100.365 285.241 100.391V100.012C285.894 99.9872 286.303 99.88 286.469 99.6909C286.648 99.4893 286.61 99.067 286.354 98.4241L283.093 89.6321L283.438 89.1405L280.522 96.6279C280.24 97.3212 280.068 97.8884 280.004 98.3296C279.952 98.7708 279.984 99.1111 280.1 99.3506C280.227 99.5901 280.426 99.7603 280.694 99.8611C280.976 99.9493 281.308 99.9998 281.692 100.012V100.391C281.27 100.365 280.867 100.353 280.483 100.353C280.1 100.34 279.709 100.334 279.313 100.334C279.032 100.334 278.763 100.34 278.507 100.353C278.264 100.353 278.047 100.365 277.855 100.391V100.012C278.123 99.9619 278.398 99.7918 278.68 99.5019C278.961 99.2119 279.236 98.7203 279.505 98.0271L283.879 86.9661C284.084 86.9788 284.301 86.9851 284.532 86.9851C284.775 86.9851 284.998 86.9788 285.203 86.9661ZM286.546 94.9451V95.3233H280.829L281.021 94.9451H286.546Z" fill="white"/>
<path d="M303.861 87.004V87.3821C303.451 87.4325 303.145 87.5397 302.94 87.7035C302.735 87.8548 302.594 88.1006 302.518 88.4409C302.454 88.7813 302.422 89.2603 302.422 89.8779V100.428C302.268 100.416 302.108 100.409 301.942 100.409C301.789 100.409 301.622 100.416 301.443 100.428L293.117 90.0292V97.2897C293.117 97.983 293.155 98.5187 293.232 98.8968C293.308 99.2624 293.475 99.5271 293.731 99.6909C293.999 99.8422 294.415 99.9493 294.978 100.012V100.391C294.735 100.365 294.415 100.353 294.018 100.353C293.622 100.34 293.251 100.334 292.906 100.334C292.611 100.334 292.311 100.34 292.004 100.353C291.697 100.353 291.441 100.365 291.236 100.391V100.012C291.646 99.9493 291.953 99.8422 292.157 99.6909C292.362 99.5397 292.496 99.2939 292.56 98.9535C292.637 98.6006 292.675 98.1216 292.675 97.5166V89.0082C292.675 88.5418 292.637 88.2014 292.56 87.9872C292.496 87.7603 292.356 87.609 292.138 87.5334C291.933 87.4451 291.633 87.3947 291.236 87.3821V87.004C291.441 87.0166 291.697 87.0292 292.004 87.0418C292.311 87.0544 292.611 87.0607 292.906 87.0607C293.213 87.0607 293.507 87.0544 293.788 87.0418C294.069 87.0292 294.325 87.0166 294.556 87.004L301.981 96.0229V90.1048C301.981 89.4115 301.942 88.8821 301.865 88.5166C301.789 88.1384 301.616 87.8674 301.347 87.7035C301.092 87.5397 300.682 87.4325 300.119 87.3821V87.004C300.363 87.0166 300.682 87.0292 301.079 87.0418C301.475 87.0544 301.846 87.0607 302.192 87.0607C302.499 87.0607 302.799 87.0544 303.093 87.0418C303.4 87.0292 303.656 87.0166 303.861 87.004Z" fill="white"/>
<path d="M315.328 87.004C315.277 87.5586 315.238 88.0943 315.213 88.6111C315.2 89.1279 315.194 89.525 315.194 89.8023C315.194 90.0544 315.2 90.2939 315.213 90.5208C315.226 90.7477 315.238 90.9367 315.251 91.088H314.81C314.682 90.1678 314.484 89.443 314.215 88.9136C313.947 88.3716 313.595 87.9935 313.16 87.7792C312.738 87.5523 312.239 87.4388 311.663 87.4388H310.877C310.506 87.4388 310.224 87.4704 310.033 87.5334C309.841 87.5964 309.713 87.7225 309.649 87.9115C309.585 88.1006 309.553 88.3905 309.553 88.7813V98.6132C309.553 99.004 309.585 99.2939 309.649 99.483C309.713 99.672 309.841 99.7981 310.033 99.8611C310.224 99.9241 310.506 99.9556 310.877 99.9556H311.817C312.392 99.9556 312.898 99.8359 313.333 99.5964C313.78 99.3443 314.158 98.922 314.465 98.3296C314.784 97.7372 315.027 96.9367 315.194 95.9283H315.635C315.597 96.3317 315.577 96.8611 315.577 97.5166C315.577 97.8065 315.584 98.2161 315.597 98.7456C315.609 99.275 315.648 99.8233 315.712 100.391C315.059 100.365 314.324 100.353 313.505 100.353C312.687 100.34 311.958 100.334 311.318 100.334C310.998 100.334 310.589 100.334 310.09 100.334C309.591 100.334 309.054 100.34 308.478 100.353C307.903 100.353 307.321 100.359 306.733 100.372C306.144 100.372 305.588 100.378 305.063 100.391V100.012C305.473 99.9872 305.78 99.9367 305.984 99.8611C306.189 99.7855 306.323 99.6342 306.387 99.4073C306.464 99.1804 306.502 98.8401 306.502 98.3863V89.0082C306.502 88.5418 306.464 88.2014 306.387 87.9872C306.323 87.7603 306.183 87.609 305.965 87.5334C305.76 87.4451 305.46 87.3947 305.063 87.3821V87.004C305.588 87.0166 306.144 87.0292 306.733 87.0418C307.321 87.0418 307.903 87.0481 308.478 87.0607C309.054 87.0607 309.591 87.0607 310.09 87.0607C310.589 87.0607 310.998 87.0607 311.318 87.0607C311.906 87.0607 312.572 87.0607 313.313 87.0607C314.068 87.0481 314.74 87.0292 315.328 87.004ZM312.335 93.4703C312.335 93.4703 312.335 93.5334 312.335 93.6594C312.335 93.7855 312.335 93.8485 312.335 93.8485H308.977C308.977 93.8485 308.977 93.7855 308.977 93.6594C308.977 93.5334 308.977 93.4703 308.977 93.4703H312.335ZM312.891 90.9746C312.84 91.693 312.815 92.2414 312.815 92.6195C312.827 92.9977 312.834 93.3443 312.834 93.6594C312.834 93.9746 312.84 94.3212 312.853 94.6993C312.866 95.0775 312.898 95.6258 312.949 96.3443H312.508C312.444 95.9031 312.322 95.4935 312.143 95.1153C311.977 94.7372 311.734 94.4346 311.414 94.2077C311.094 93.9682 310.678 93.8485 310.167 93.8485V93.4703C310.551 93.4703 310.877 93.3947 311.145 93.2435C311.414 93.0796 311.631 92.8716 311.798 92.6195C311.977 92.3548 312.117 92.0775 312.22 91.7876C312.322 91.4977 312.399 91.2267 312.45 90.9746H312.891Z" fill="white"/>
<path d="M323.152 87.004V87.3821C322.742 87.3947 322.429 87.4451 322.212 87.5334C322.007 87.609 321.873 87.7603 321.809 87.9872C321.745 88.2014 321.713 88.5418 321.713 89.0082V98.3863C321.713 98.8401 321.745 99.1804 321.809 99.4073C321.886 99.6342 322.026 99.7855 322.231 99.8611C322.436 99.9367 322.742 99.9872 323.152 100.012V100.391C322.806 100.365 322.372 100.353 321.847 100.353C321.323 100.34 320.792 100.334 320.255 100.334C319.628 100.334 319.046 100.34 318.509 100.353C317.984 100.353 317.556 100.365 317.223 100.391V100.012C317.633 99.9872 317.94 99.9367 318.144 99.8611C318.349 99.7855 318.483 99.6342 318.547 99.4073C318.624 99.1804 318.662 98.8401 318.662 98.3863V89.0082C318.662 88.5418 318.624 88.2014 318.547 87.9872C318.483 87.7603 318.342 87.609 318.125 87.5334C317.92 87.4451 317.62 87.3947 317.223 87.3821V87.004C317.556 87.0166 317.984 87.0292 318.509 87.0418C319.046 87.0544 319.628 87.0607 320.255 87.0607C320.792 87.0607 321.323 87.0544 321.847 87.0418C322.372 87.0292 322.806 87.0166 323.152 87.004Z" fill="white"/>
<path d="M324.437 87.004C324.757 87.0166 325.185 87.0292 325.722 87.0418C326.272 87.0544 326.816 87.0607 327.353 87.0607C327.967 87.0607 328.562 87.0544 329.137 87.0418C329.713 87.0292 330.122 87.0229 330.365 87.0229C331.555 87.0229 332.54 87.1552 333.32 87.4199C334.113 87.672 334.701 88.0439 335.085 88.5355C335.482 89.0271 335.68 89.6195 335.68 90.3128C335.68 90.7414 335.59 91.1762 335.411 91.6174C335.232 92.046 334.925 92.4493 334.49 92.8275C334.068 93.193 333.486 93.4893 332.744 93.7161C332.003 93.9304 331.069 94.0376 329.943 94.0376H328.101V93.6594H329.751C330.506 93.6594 331.075 93.5208 331.459 93.2435C331.855 92.9535 332.124 92.5754 332.265 92.109C332.418 91.63 332.495 91.1006 332.495 90.5208C332.495 89.525 332.316 88.7561 331.958 88.214C331.6 87.6594 330.986 87.3821 330.116 87.3821C329.617 87.3821 329.291 87.4893 329.137 87.7035C328.997 87.9178 328.926 88.3527 328.926 89.0082V98.3863C328.926 98.8401 328.958 99.1804 329.022 99.4073C329.099 99.6342 329.24 99.7855 329.444 99.8611C329.649 99.9367 329.956 99.9872 330.365 100.012V100.391C330.02 100.365 329.585 100.353 329.061 100.353C328.536 100.34 328.005 100.334 327.468 100.334C326.854 100.334 326.272 100.34 325.722 100.353C325.185 100.353 324.757 100.365 324.437 100.391V100.012C324.846 99.9872 325.153 99.9367 325.358 99.8611C325.562 99.7855 325.697 99.6342 325.761 99.4073C325.837 99.1804 325.876 98.8401 325.876 98.3863V89.0082C325.876 88.5418 325.837 88.2014 325.761 87.9872C325.697 87.7603 325.556 87.609 325.339 87.5334C325.134 87.4451 324.833 87.3947 324.437 87.3821V87.004ZM328.063 93.7161C328.613 93.7288 329.086 93.754 329.483 93.7918C329.892 93.8296 330.25 93.8674 330.557 93.9052C330.864 93.9304 331.139 93.9493 331.382 93.9619C332.546 94.0628 333.403 94.3086 333.953 94.6993C334.516 95.0901 334.88 95.6762 335.047 96.4577L335.488 98.4052C335.603 98.9094 335.725 99.2624 335.853 99.464C335.98 99.6657 336.166 99.7666 336.409 99.7666C336.575 99.754 336.71 99.7161 336.812 99.6531C336.927 99.5775 337.048 99.4703 337.176 99.3317L337.445 99.5586C337.1 99.9493 336.729 100.227 336.332 100.391C335.936 100.567 335.456 100.655 334.893 100.655C334.203 100.655 333.633 100.51 333.186 100.22C332.738 99.9304 332.444 99.3947 332.303 98.6132L331.958 96.7225C331.868 96.193 331.759 95.733 331.632 95.3422C331.504 94.9388 331.325 94.6237 331.094 94.3968C330.877 94.1573 330.57 94.0376 330.173 94.0376H328.101L328.063 93.7161Z" fill="white"/>
<path d="M344.129 86.9661L348.791 98.8023C348.97 99.2561 349.169 99.5712 349.386 99.7477C349.616 99.9115 349.821 99.9998 350 100.012V100.391C349.616 100.365 349.162 100.353 348.638 100.353C348.126 100.34 347.608 100.334 347.084 100.334C346.495 100.334 345.939 100.34 345.415 100.353C344.89 100.353 344.474 100.365 344.167 100.391V100.012C344.82 99.9872 345.229 99.88 345.395 99.6909C345.574 99.4893 345.536 99.067 345.28 98.4241L342.019 89.6321L342.364 89.1405L339.448 96.6279C339.166 97.3212 338.994 97.8884 338.93 98.3296C338.878 98.7708 338.91 99.1111 339.026 99.3506C339.153 99.5901 339.352 99.7603 339.62 99.8611C339.902 99.9493 340.234 99.9998 340.618 100.012V100.391C340.196 100.365 339.793 100.353 339.409 100.353C339.026 100.34 338.635 100.334 338.239 100.334C337.958 100.334 337.689 100.34 337.433 100.353C337.19 100.353 336.973 100.365 336.781 100.391V100.012C337.049 99.9619 337.324 99.7918 337.606 99.5019C337.887 99.2119 338.162 98.7203 338.431 98.0271L342.805 86.9661C343.01 86.9788 343.227 86.9851 343.458 86.9851C343.701 86.9851 343.924 86.9788 344.129 86.9661ZM345.472 94.9451V95.3233H339.755L339.947 94.9451H345.472Z" fill="white"/>
</svg>
