<svg width="350" height="118" viewBox="0 0 350 118" fill="none" xmlns="http://www.w3.org/2000/svg">
<path d="M67.3075 0.816751C66.5808 1.2706 65.5817 1.45214 64.9458 1.2706C64.4008 0.99829 63.1292 1.63367 62.2208 2.72291C61.3125 3.72137 59.8592 4.53829 59.0417 4.53829C58.2242 4.53829 56.4075 5.71829 54.9542 7.26137C53.5008 8.71367 51.8658 9.98444 51.3208 9.98444C50.685 9.98444 49.5042 10.8014 48.5958 11.7998C47.6875 12.7983 46.6883 13.4337 46.325 13.1614C45.235 12.526 39.0583 17.246 39.0583 18.6983C39.0583 19.5152 41.0567 23.5091 43.5092 27.5937C49.05 36.8521 50.8667 40.6644 50.8667 42.8429C50.8667 44.8398 54.0458 51.3752 55.4992 52.2829C56.0442 52.5552 55.8625 51.9198 55.1358 50.7398C54.4092 49.5598 53.3192 45.4752 52.6833 41.7537C52.0475 37.8506 50.2308 31.9506 48.4142 27.866C46.5975 24.0537 45.3258 20.6952 45.5075 20.5137C47.7783 18.3352 67.1258 6.35367 68.3067 6.35367C71.3042 6.35367 77.1175 12.7075 80.8417 20.1506C82.84 24.1444 84.475 28.4106 84.475 29.4998C84.475 33.2214 78.9342 39.3029 70.305 44.9306C65.6725 47.926 61.2217 50.9214 60.3133 51.466C59.3142 52.1014 60.2225 52.0106 62.2208 51.1937C64.2192 50.3768 67.6708 49.1968 69.76 48.5614C71.94 47.8352 74.3925 46.746 75.21 46.0198C76.1183 45.2029 77.7533 44.4768 78.9342 44.2952C80.115 44.2044 81.5683 43.206 82.1133 42.2983C82.6583 41.2998 84.475 39.3029 86.11 37.7598C87.6542 36.2168 89.0167 34.3106 89.0167 33.5844C89.0167 32.7675 89.4708 31.6783 90.0158 31.1337C91.2875 29.8629 90.1067 22.1475 88.4717 20.4229C87.745 19.7875 87.2 18.3352 87.2 17.3368C87.2 16.2475 86.3825 14.9768 85.3833 14.3414C84.3842 13.706 83.5667 12.3444 83.5667 11.4368C83.5667 9.25829 76.7542 2.72291 74.4833 2.72291C73.6658 2.72291 72.3942 2.08752 71.7583 1.36137C70.4867 -0.18171 69.1242 -0.363249 67.3075 0.816751Z" fill="#003B0F"/>
<path d="M27.4317 24.9615C26.2509 25.5969 24.525 26.9584 23.5259 28.0477C22.5267 29.0461 21.1642 29.9538 20.5284 29.9538C19.8017 29.9538 18.8025 30.5892 18.1667 31.3153C17.5309 32.0415 16.1684 32.6769 15.0784 32.6769C13.9884 32.6769 11.7175 33.6753 9.9917 34.9461C8.26586 36.2169 6.54003 37.2153 6.08586 37.2153C5.72253 37.2153 4.2692 38.4861 2.9067 40.12C0.999197 42.2984 0.454197 44.1138 0.272531 47.7446C0.181697 50.4677 0.454197 52.8277 0.908364 53.1C1.45336 53.463 1.8167 54.8246 1.8167 56.2769C1.8167 58.0015 2.45253 59.2723 3.63336 59.9077C4.63253 60.4523 5.45003 61.6323 5.45003 62.6307C5.45003 63.5384 6.1767 64.9 7.08503 65.5353C7.90253 66.1707 9.1742 67.8046 9.7192 69.1661C10.355 70.6184 11.445 71.7077 12.1717 71.7077C12.9892 71.7077 13.9884 72.4338 14.4425 73.4323C15.4417 75.2477 22.4359 76.7 24.0709 75.3384C24.525 74.9753 26.9775 74.34 29.5209 73.8861C32.6092 73.4323 34.5167 72.6153 35.6975 71.163C36.6059 69.983 37.8775 68.9846 38.5134 68.9846C39.0584 68.9846 42.4192 66.2615 45.9617 62.9938L52.2292 57.003L45.8709 60.8153C32.6092 68.9846 22.5267 72.0707 18.4392 69.3477C15.6234 67.5323 7.5392 55.2784 6.1767 50.74C4.5417 45.1123 5.9042 43.3877 15.6234 38.4861C20.2559 36.1261 25.1609 33.4938 26.5234 32.5861C27.795 31.5877 29.1575 30.8615 29.43 30.8615C29.7025 30.8615 31.9734 33.6753 34.5167 37.1246C36.9692 40.483 40.6025 44.4769 42.4192 45.8384C44.3267 47.2907 47.2334 49.6507 48.9592 51.1938L51.9567 54.0077L50.0492 50.1953C49.05 48.1077 47.3242 46.2015 46.325 45.8384C45.3259 45.5661 44.5084 44.6584 44.5084 44.023C44.5084 43.2969 43.7817 42.2077 42.8734 41.5723C41.965 40.9369 40.9659 39.7569 40.6025 39.0307C40.2392 38.3046 38.9675 36.0353 37.6959 34.0384C36.4242 32.0415 35.1525 29.7723 34.88 29.0461C34.0625 27.3215 30.7017 23.6 30.0659 23.6907C29.7934 23.7815 28.6125 24.3261 27.4317 24.9615Z" fill="#003B0F"/>
<path d="M86.7458 43.4784C85.2925 44.2953 82.0225 46.1107 79.57 47.4722C77.1175 48.8337 74.3925 49.923 73.4841 49.923C72.5758 49.923 71.5766 50.2861 71.3041 50.8307C71.0316 51.2845 69.9416 51.7384 68.9425 51.7384C67.1258 51.7384 58.1333 55.9137 58.1333 56.8214C58.1333 57.003 58.9508 56.8214 59.95 56.2768C60.9491 55.7322 65.3091 54.9153 69.5783 54.3707C74.3925 53.7353 79.8425 52.3737 83.6575 50.7399C89.6525 48.1984 91.7416 48.0168 91.7416 50.0137C91.7416 50.4676 94.4666 55.2784 97.7366 60.7245C104.64 72.2522 104.731 73.7953 98.3725 78.6061C92.9225 82.7814 81.4775 87.3199 78.3891 86.5937C74.3925 85.5953 68.0341 78.243 63.22 69.2568C60.6766 64.6276 58.5875 60.9968 58.4058 61.0876C58.0425 61.5414 60.9491 71.0722 62.5841 74.3399C63.4016 76.0645 64.0375 78.1522 64.1283 79.0599C64.31 81.783 65.3091 83.5076 66.7625 83.5076C67.4891 83.5076 68.125 84.0522 68.125 84.6876C68.125 85.323 69.1241 86.7753 70.3958 87.8645C71.6675 88.9537 72.6666 90.2245 72.6666 90.7691C72.6666 91.223 73.4841 91.6768 74.3925 91.6768C75.3916 91.6768 76.4816 92.0399 76.7541 92.5845C77.4808 93.6737 81.4775 93.7645 82.1133 92.6753C82.3858 92.2214 83.385 92.0399 84.2933 92.3122C85.2016 92.4937 86.655 91.8584 87.5633 90.8599C88.5625 89.7707 90.1975 88.9537 91.2875 88.9537C92.4683 88.9537 93.8308 88.3184 94.4666 87.5922C95.1025 86.8661 96.3741 86.2307 97.2825 86.2307C99.4625 86.2307 105.094 80.7845 107.274 76.5184C109.272 72.7061 108.909 66.2614 106.638 64.3553C105.912 63.8107 105.367 62.5399 105.367 61.5414C105.367 60.6337 104.367 58.8184 103.096 57.5476C101.824 56.2768 100.825 54.7337 100.825 54.0984C100.825 53.463 100.007 52.1922 99.0991 51.3753C98.1 50.4676 97.3733 49.1061 97.4641 48.2891C97.4641 47.3814 96.8283 45.6568 95.92 44.2045C94.0125 41.3907 91.015 41.1184 86.7458 43.4784Z" fill="#003B0F"/>
<path d="M61.8692 13.5248C60.4159 14.3417 57.1459 16.3386 54.6934 17.9725C52.15 19.6063 49.6067 20.8771 48.9709 20.8771C47.0634 20.8771 47.6084 22.7832 50.9692 28.4109C52.695 31.3156 54.6025 35.5817 55.1475 37.9417C55.6017 40.3017 56.6917 43.1156 57.4184 44.2048L58.69 46.2925L63.3225 44.4771C70.4075 41.8448 77.8559 37.1248 79.6725 34.0386C80.6717 32.4956 81.3984 30.4079 81.3984 29.2279C81.3984 26.3232 77.22 18.2448 73.8592 14.7048L71.0434 11.8002L67.8642 11.8909C66.0475 11.8909 63.4134 12.6171 61.8692 13.5248Z" fill="#A5CD38"/>
<path d="M26.4441 35.4002C26.0808 35.9448 22.6291 38.0325 18.6325 40.0294L11.3658 43.6602L10.4575 46.0202C10.0033 47.291 9.82165 49.7417 10.185 51.3756C10.9116 55.1879 16.9975 64.8094 19.5408 66.171C20.54 66.7156 22.5383 67.1694 23.9916 67.1694C27.2616 67.1694 35.8 62.8125 41.0683 58.4556L44.8833 55.3694L44.4291 53.4633C44.1566 52.4648 42.1583 50.1956 40.0691 48.3802C37.98 46.6556 34.8916 42.7525 33.1658 39.8479L30.1683 34.4925H28.6241C27.7158 34.4925 26.7166 34.9464 26.4441 35.4002Z" fill="#A5CD38"/>
<path d="M83.3967 53.554C80.7625 55.097 76.3117 56.8217 73.405 57.2755C70.5892 57.8201 67.5009 58.637 66.5925 59.1817L64.8667 60.0894L65.5025 62.4494C65.775 63.8109 67.6825 68.2586 69.6809 72.434L73.3142 79.9678L76.2209 81.6924C77.8559 82.6909 79.945 83.5078 80.9442 83.5078C83.5784 83.5078 93.7517 78.5155 96.3859 75.8832L98.6567 73.614V70.2555V66.897L95.0234 61.1786C93.1159 58.0924 91.2084 54.4617 90.845 53.1909C90.5725 51.9201 89.8459 50.8309 89.21 50.8309C88.665 50.8309 86.0309 52.1017 83.3967 53.554Z" fill="#A5CD38"/>
<path d="M48.6983 68.2586C47.6991 69.8925 46.7 72.9786 46.3366 75.0663L45.7916 78.9694H43.7025C42.5216 78.9694 40.8866 79.6048 40.16 80.4217L38.7066 81.7832V85.2325V88.5909L35.5275 90.134L32.3483 91.6771V93.3109C32.3483 94.3094 33.1658 96.1248 34.165 97.3956C35.1641 98.6663 35.9816 100.209 35.9816 100.754V101.843L33.9833 101.208C32.8025 100.936 29.9866 100.391 27.625 100.119L23.265 99.574L22.72 101.117C21.8116 103.568 23.1741 107.199 26.1716 110.012L28.8966 112.554H26.6258C23.5375 112.554 22.72 114.097 24.7183 116.276C26.535 118.272 28.2608 118.545 27.5341 116.82L27.08 115.549L30.6225 116.185C32.53 116.548 34.3466 116.639 34.6191 116.366C35.7091 115.186 34.8916 111.556 32.8933 109.196L30.7133 106.654L34.6191 106.926L38.4341 107.289L39.9783 105.656L41.6133 104.112L41.1591 100.845C40.8866 99.0294 40.5233 96.7602 40.3416 95.7617L40.0691 94.0371L42.7941 93.4925L45.5191 93.0386L45.7916 91.4048C45.9733 90.4971 45.4283 88.6817 44.6108 87.4109L43.0666 85.0509L44.2475 84.3248C44.9741 83.8709 46.7 83.5079 48.0625 83.5079H50.6058L49.97 78.2432L49.425 72.9786L50.8783 69.5294C52.6041 65.4448 52.6041 65.354 51.4233 65.354C50.8783 65.354 49.6975 66.6248 48.6983 68.2586Z" fill="#A5CD38"/>
<path d="M134 17.996C135.178 18.0434 136.756 18.0909 138.735 18.1383C140.762 18.1857 142.764 18.2094 144.743 18.2094C147.005 18.2094 149.196 18.1857 151.316 18.1383C153.437 18.0909 154.945 18.0671 155.84 18.0671C162.389 18.0671 167.29 19.3714 170.541 21.98C173.792 24.5885 175.418 27.9559 175.418 32.0822C175.418 33.7896 175.088 35.5919 174.428 37.489C173.769 39.3387 172.638 41.0698 171.036 42.6824C169.481 44.2475 167.337 45.5281 164.604 46.5241C161.871 47.52 158.431 48.018 154.285 48.018H147.076V46.5952H153.578C156.358 46.5952 158.455 45.9549 159.869 44.6744C161.329 43.3938 162.319 41.7101 162.837 39.6233C163.402 37.5364 163.685 35.2836 163.685 32.8647C163.685 28.3591 163.026 24.9917 161.706 22.7625C160.387 20.5334 158.125 19.4188 154.921 19.4188C153.083 19.4188 151.882 19.822 151.316 20.6283C150.798 21.4345 150.539 23.0708 150.539 25.5371V60.3968C150.539 62.2465 150.727 63.6219 151.104 64.5231C151.481 65.4242 152.212 66.017 153.295 66.3016C154.379 66.5862 155.981 66.7522 158.102 66.7996V68.3647C156.641 68.3173 154.756 68.2699 152.447 68.2225C150.138 68.175 147.712 68.1513 145.167 68.1513C143.141 68.1513 141.162 68.175 139.23 68.2225C137.298 68.2699 135.555 68.3173 134 68.3647V66.9419C135.508 66.847 136.639 66.6573 137.393 66.3728C138.147 66.0882 138.641 65.519 138.877 64.6653C139.16 63.8116 139.301 62.5311 139.301 60.8237V25.5371C139.301 23.7822 139.16 22.5017 138.877 21.6954C138.641 20.8417 138.123 20.2725 137.322 19.988C136.568 19.656 135.461 19.4663 134 19.4188V17.996Z" fill="#003B0F"/>
<path d="M216.747 17.996C216.558 20.0828 216.417 22.0985 216.323 24.0431C216.276 25.9876 216.252 27.4816 216.252 28.5251C216.252 29.4736 216.276 30.3748 216.323 31.2285C216.37 32.0822 216.417 32.7936 216.464 33.3627H214.839C214.367 29.9005 213.637 27.1734 212.648 25.1814C211.658 23.142 210.362 21.7191 208.76 20.9128C207.205 20.0591 205.368 19.6323 203.247 19.6323H200.349C198.983 19.6323 197.946 19.7508 197.239 19.988C196.533 20.2251 196.062 20.6994 195.826 21.4108C195.59 22.1222 195.473 23.2131 195.473 24.6834V61.6774C195.473 63.1476 195.59 64.2385 195.826 64.9499C196.062 65.6613 196.533 66.1356 197.239 66.3728C197.946 66.6099 198.983 66.7285 200.349 66.7285H203.813C205.933 66.7285 207.794 66.2779 209.396 65.3768C211.045 64.4282 212.435 62.8394 213.566 60.6102C214.744 58.3811 215.64 55.3694 216.252 51.5752H217.878C217.736 53.0929 217.666 55.0848 217.666 57.5511C217.666 58.642 217.689 60.1834 217.736 62.1754C217.784 64.1673 217.925 66.2305 218.16 68.3647C215.757 68.2699 213.048 68.2225 210.032 68.2225C207.017 68.175 204.331 68.1513 201.975 68.1513C200.797 68.1513 199.289 68.1513 197.452 68.1513C195.614 68.1513 193.635 68.175 191.514 68.2225C189.394 68.2225 187.25 68.2462 185.083 68.2936C182.915 68.2936 180.866 68.3173 178.934 68.3647V66.9419C180.441 66.847 181.572 66.6573 182.326 66.3728C183.08 66.0882 183.575 65.519 183.81 64.6653C184.093 63.8116 184.235 62.5311 184.235 60.8237V25.5371C184.235 23.7822 184.093 22.5017 183.81 21.6954C183.575 20.8417 183.057 20.2725 182.256 19.988C181.502 19.656 180.394 19.4663 178.934 19.4188V17.996C180.866 18.0434 182.915 18.0909 185.083 18.1383C187.25 18.1383 189.394 18.162 191.514 18.2094C193.635 18.2094 195.614 18.2094 197.452 18.2094C199.289 18.2094 200.797 18.2094 201.975 18.2094C204.142 18.2094 206.593 18.2094 209.326 18.2094C212.106 18.162 214.579 18.0909 216.747 17.996ZM205.721 42.3267C205.721 42.3267 205.721 42.5638 205.721 43.0381C205.721 43.5124 205.721 43.7495 205.721 43.7495H193.352C193.352 43.7495 193.352 43.5124 193.352 43.0381C193.352 42.5638 193.352 42.3267 193.352 42.3267H205.721ZM207.771 32.9359C207.582 35.6393 207.488 37.7024 207.488 39.1253C207.535 40.5481 207.559 41.8524 207.559 43.0381C207.559 44.2238 207.582 45.5281 207.629 46.9509C207.676 48.3738 207.794 50.4369 207.983 53.1403H206.357C206.121 51.4803 205.674 49.9389 205.014 48.516C204.402 47.0932 203.506 45.9549 202.328 45.1012C201.15 44.2001 199.619 43.7495 197.734 43.7495V42.3267C199.148 42.3267 200.349 42.0421 201.339 41.473C202.328 40.8564 203.129 40.0738 203.742 39.1253C204.402 38.1293 204.92 37.0858 205.297 35.995C205.674 34.9041 205.957 33.8844 206.145 32.9359H207.771Z" fill="#003B0F"/>
<path d="M275.325 67.511L276.597 67.8667C276.22 70.4753 275.631 72.7044 274.83 74.5541C274.029 76.4512 272.992 77.9215 271.72 78.9649C270.731 79.7712 269.435 80.4352 267.833 80.9569C266.278 81.4786 264.535 81.7395 262.603 81.7395C260.011 81.7395 257.467 81.3364 254.969 80.5301C252.519 79.7238 250.022 78.7278 247.477 77.5421C244.933 76.4038 242.247 75.2893 239.42 74.1984C239.09 74.1036 238.76 73.985 238.43 73.8427C238.148 73.7478 237.912 73.7004 237.724 73.7004C236.828 74.1273 235.839 74.483 234.755 74.7675C233.719 75.0521 232.729 75.1944 231.787 75.1944C230.844 75.1944 230.043 75.0521 229.384 74.7675C228.771 74.483 228.465 74.0087 228.465 73.3447C228.465 72.0641 229.76 71.4239 232.352 71.4239C234.001 71.4239 235.792 71.7559 237.724 72.4199C239.467 71.9456 240.951 71.4001 242.176 70.7836C243.449 70.2144 244.744 69.669 246.064 69.1473C247.43 68.6256 249.079 68.2936 251.011 68.1513L251.082 69.2896C249.574 69.4319 248.278 69.6927 247.195 70.0722C246.158 70.499 245.098 70.9496 244.014 71.4239C242.93 71.8981 241.658 72.3487 240.197 72.7756C243.543 73.0127 246.653 73.2498 249.527 73.487C252.401 73.7716 255.064 73.9376 257.514 73.985C259.964 74.0798 262.179 73.985 264.158 73.7004C267.079 73.3684 269.388 72.7281 271.084 71.7796C272.78 70.831 274.194 69.4082 275.325 67.511ZM249.386 17C254.38 17 258.739 18.0197 262.461 20.0591C266.231 22.0985 269.152 25.0391 271.225 28.8808C273.299 32.675 274.335 37.2993 274.335 42.7535C274.335 48.0655 273.275 52.7134 271.155 56.6974C269.034 60.6814 266.066 63.7879 262.249 66.017C258.48 68.2462 254.168 69.3607 249.315 69.3607C244.32 69.3607 239.938 68.341 236.169 66.3016C232.446 64.2622 229.548 61.3217 227.475 57.48C225.402 53.6383 224.365 49.014 224.365 43.6072C224.365 38.2953 225.425 33.6473 227.546 29.6633C229.713 25.6794 232.658 22.5728 236.381 20.3437C240.15 18.1146 244.485 17 249.386 17ZM249.103 18.2806C246.464 18.2806 244.155 19.3477 242.176 21.482C240.245 23.6162 238.737 26.5568 237.653 30.3036C236.616 34.0504 236.098 38.3901 236.098 43.3227C236.098 48.35 236.687 52.7371 237.865 56.484C239.09 60.1834 240.716 63.0528 242.742 65.0922C244.815 67.0842 247.1 68.0802 249.598 68.0802C252.236 68.0802 254.522 67.013 256.454 64.8788C258.433 62.7445 259.94 59.804 260.977 56.0571C262.061 52.2629 262.603 47.9232 262.603 43.0381C262.603 37.9633 261.99 33.5762 260.765 29.8768C259.587 26.1774 257.961 23.3317 255.888 21.3397C253.862 19.3003 251.6 18.2806 249.103 18.2806Z" fill="#003B0F"/>
<path d="M324.453 17.996V19.4188C322.945 19.6086 321.791 20.0117 320.99 20.6283C320.236 21.1974 319.741 22.1222 319.505 23.4028C319.27 24.6834 319.152 26.4856 319.152 28.8096V47.6623C319.152 50.7452 318.94 53.5671 318.516 56.1283C318.092 58.6894 317.338 60.8948 316.254 62.7445C315.029 64.7839 313.238 66.3965 310.882 67.5822C308.527 68.7679 305.534 69.3607 301.906 69.3607C299.739 69.3607 297.524 69.0999 295.262 68.5782C293.001 68.1039 290.975 67.179 289.184 65.8036C287.676 64.5231 286.522 63.0765 285.721 61.4639C284.92 59.8514 284.378 57.9543 284.095 55.7726C283.812 53.5434 283.671 50.9112 283.671 47.8758V25.5371C283.671 23.7822 283.53 22.5017 283.247 21.6954C283.011 20.8417 282.517 20.2725 281.763 19.988C281.009 19.656 279.878 19.4663 278.37 19.4188V17.996C279.548 18.0434 281.127 18.0909 283.106 18.1383C285.132 18.1857 287.229 18.2094 289.396 18.2094C291.564 18.2094 293.637 18.1857 295.616 18.1383C297.642 18.0909 299.315 18.0434 300.634 17.996V19.4188C299.032 19.4663 297.807 19.656 296.959 19.988C296.158 20.2725 295.616 20.8417 295.333 21.6954C295.05 22.5017 294.909 23.7822 294.909 25.5371V52.3577C294.909 54.7291 295.05 56.8397 295.333 58.6894C295.663 60.4917 296.181 62.0094 296.888 63.2425C297.642 64.4282 298.655 65.3293 299.927 65.9459C301.199 66.5625 302.778 66.8708 304.663 66.8708C307.961 66.8708 310.529 66.0882 312.367 64.5231C314.252 62.9579 315.571 60.7999 316.325 58.0491C317.126 55.2508 317.526 52.0494 317.526 48.4449V29.6633C317.526 27.0548 317.361 25.0628 317.032 23.6874C316.702 22.2645 316.042 21.2448 315.053 20.6283C314.11 20.0117 312.649 19.6086 310.67 19.4188V17.996C311.566 18.0434 312.744 18.0909 314.204 18.1383C315.665 18.1857 317.032 18.2094 318.304 18.2094C319.435 18.2094 320.542 18.1857 321.626 18.1383C322.757 18.0909 323.699 18.0434 324.453 17.996Z" fill="#003B0F"/>
<path d="M350 17.996V19.4188C348.492 19.4663 347.338 19.656 346.537 19.988C345.783 20.2725 345.288 20.8417 345.052 21.6954C344.817 22.5017 344.699 23.7822 344.699 25.5371V60.8237C344.699 62.5311 344.817 63.8116 345.052 64.6653C345.335 65.519 345.853 66.0882 346.607 66.3728C347.361 66.6573 348.492 66.847 350 66.9419V68.3647C348.728 68.2699 347.126 68.2225 345.194 68.2225C343.262 68.175 341.306 68.1513 339.327 68.1513C337.019 68.1513 334.875 68.175 332.896 68.2225C330.964 68.2225 329.385 68.2699 328.16 68.3647V66.9419C329.668 66.847 330.799 66.6573 331.553 66.3728C332.307 66.0882 332.801 65.519 333.037 64.6653C333.32 63.8116 333.461 62.5311 333.461 60.8237V25.5371C333.461 23.7822 333.32 22.5017 333.037 21.6954C332.801 20.8417 332.283 20.2725 331.482 19.988C330.728 19.656 329.621 19.4663 328.16 19.4188V17.996C329.385 18.0434 330.964 18.0909 332.896 18.1383C334.875 18.1857 337.019 18.2094 339.327 18.2094C341.306 18.2094 343.262 18.1857 345.194 18.1383C347.126 18.0909 348.728 18.0434 350 17.996Z" fill="#003B0F"/>
<path d="M134 87.0042C134.32 87.0168 134.748 87.0294 135.285 87.042C135.835 87.0546 136.379 87.0609 136.916 87.0609C137.53 87.0609 138.125 87.0546 138.701 87.042C139.276 87.0294 139.685 87.0231 139.928 87.0231C141.706 87.0231 143.037 87.3698 143.919 88.063C144.802 88.7563 145.243 89.6513 145.243 90.7479C145.243 91.2017 145.154 91.6807 144.974 92.1849C144.795 92.6765 144.488 93.1366 144.054 93.5651C143.631 93.9811 143.049 94.3214 142.308 94.5861C141.566 94.8508 140.632 94.9832 139.506 94.9832H137.549V94.605H139.315C140.069 94.605 140.638 94.4349 141.022 94.0945C141.419 93.7542 141.687 93.3067 141.828 92.7521C141.981 92.1975 142.058 91.5987 142.058 90.9559C142.058 89.7584 141.879 88.8635 141.521 88.271C141.163 87.6786 140.549 87.3824 139.679 87.3824C139.18 87.3824 138.854 87.4895 138.701 87.7038C138.56 87.9181 138.49 88.3529 138.49 89.0084V98.2731C138.49 98.7647 138.541 99.1303 138.643 99.3698C138.745 99.6092 138.944 99.7668 139.238 99.8424C139.532 99.9181 139.967 99.9622 140.542 99.9748V100.391C140.146 100.378 139.634 100.366 139.008 100.353C138.381 100.34 137.722 100.334 137.031 100.334C136.481 100.334 135.944 100.34 135.42 100.353C134.895 100.366 134.422 100.378 134 100.391V100.013C134.409 99.9874 134.716 99.937 134.921 99.8614C135.126 99.7857 135.26 99.6345 135.324 99.4076C135.401 99.1807 135.439 98.8403 135.439 98.3866V89.0084C135.439 88.542 135.401 88.2017 135.324 87.9874C135.26 87.7605 135.119 87.6093 134.902 87.5336C134.697 87.4454 134.397 87.395 134 87.3824V87.0042Z" fill="#A5CD38"/>
<path d="M153.256 86.7395C154.611 86.7395 155.795 87.0105 156.805 87.5525C157.828 88.0945 158.621 88.8761 159.184 89.8971C159.747 90.9055 160.028 92.1345 160.028 93.584C160.028 94.9958 159.741 96.2311 159.165 97.2899C158.589 98.3487 157.784 99.1744 156.747 99.7668C155.724 100.359 154.554 100.655 153.236 100.655C151.881 100.655 150.691 100.384 149.668 99.8424C148.657 99.3004 147.871 98.5189 147.308 97.4979C146.745 96.4769 146.464 95.2479 146.464 93.8109C146.464 92.3992 146.752 91.1639 147.327 90.105C147.916 89.0462 148.715 88.2206 149.725 87.6282C150.749 87.0357 151.925 86.7395 153.256 86.7395ZM153.179 87.0798C152.463 87.0798 151.836 87.3635 151.299 87.9307C150.774 88.4979 150.365 89.2794 150.071 90.2752C149.789 91.271 149.649 92.4244 149.649 93.7353C149.649 95.0714 149.809 96.2374 150.128 97.2332C150.461 98.2164 150.902 98.979 151.452 99.521C152.015 100.05 152.635 100.315 153.313 100.315C154.029 100.315 154.65 100.032 155.174 99.4643C155.711 98.8971 156.121 98.1156 156.402 97.1198C156.696 96.1113 156.843 94.958 156.843 93.6597C156.843 92.3109 156.677 91.145 156.345 90.1618C156.025 89.1786 155.584 88.4223 155.021 87.8929C154.471 87.3508 153.857 87.0798 153.179 87.0798Z" fill="#A5CD38"/>
<path d="M173.633 87.0042V87.3824C173.224 87.4328 172.91 87.5399 172.693 87.7038C172.488 87.855 172.354 88.1008 172.29 88.4412C172.226 88.7815 172.194 89.2605 172.194 89.8782V94.8887C172.194 95.708 172.136 96.458 172.021 97.1387C171.906 97.8193 171.701 98.4055 171.407 98.8971C171.075 99.4391 170.589 99.8677 169.949 100.183C169.31 100.498 168.497 100.655 167.513 100.655C166.924 100.655 166.323 100.586 165.709 100.447C165.095 100.321 164.545 100.076 164.059 99.7101C163.65 99.3698 163.336 98.9853 163.119 98.5567C162.901 98.1282 162.754 97.624 162.678 97.0441C162.601 96.4517 162.563 95.7521 162.563 94.9454V89.0084C162.563 88.542 162.524 88.2017 162.447 87.9874C162.383 87.7605 162.249 87.6093 162.044 87.5336C161.84 87.4454 161.533 87.395 161.124 87.3824V87.0042C161.443 87.0168 161.872 87.0294 162.409 87.042C162.959 87.0546 163.528 87.0609 164.117 87.0609C164.705 87.0609 165.268 87.0546 165.805 87.042C166.355 87.0294 166.809 87.0168 167.167 87.0042V87.3824C166.732 87.395 166.4 87.4454 166.17 87.5336C165.952 87.6093 165.805 87.7605 165.728 87.9874C165.651 88.2017 165.613 88.542 165.613 89.0084V96.1366C165.613 96.7668 165.651 97.3277 165.728 97.8193C165.818 98.2983 165.958 98.7017 166.15 99.0294C166.355 99.3445 166.63 99.584 166.975 99.7479C167.321 99.9118 167.749 99.9937 168.261 99.9937C169.156 99.9937 169.853 99.7857 170.352 99.3698C170.864 98.9538 171.222 98.3803 171.426 97.6492C171.644 96.9055 171.753 96.0546 171.753 95.0966V90.105C171.753 89.4118 171.708 88.8824 171.618 88.5168C171.529 88.1387 171.35 87.8677 171.081 87.7038C170.825 87.5399 170.429 87.4328 169.892 87.3824V87.0042C170.135 87.0168 170.454 87.0294 170.851 87.042C171.247 87.0546 171.618 87.0609 171.964 87.0609C172.271 87.0609 172.571 87.0546 172.865 87.042C173.172 87.0294 173.428 87.0168 173.633 87.0042Z" fill="#A5CD38"/>
<path d="M179.436 86.7584C180.19 86.7584 180.772 86.8403 181.182 87.0042C181.591 87.1555 181.943 87.3193 182.237 87.4958C182.39 87.584 182.512 87.6534 182.601 87.7038C182.704 87.7416 182.8 87.7605 182.889 87.7605C183.017 87.7605 183.107 87.6912 183.158 87.5525C183.222 87.4139 183.273 87.2059 183.311 86.9286H183.753C183.74 87.1681 183.721 87.458 183.695 87.7983C183.682 88.1261 183.67 88.5609 183.657 89.1029C183.657 89.645 183.657 90.3571 183.657 91.2395H183.215C183.164 90.584 183.011 89.9475 182.755 89.3298C182.499 88.7122 182.135 88.208 181.661 87.8172C181.201 87.4139 180.632 87.2122 179.954 87.2122C179.34 87.2122 178.835 87.3824 178.438 87.7227C178.042 88.063 177.843 88.5357 177.843 89.1408C177.843 89.645 177.971 90.0798 178.227 90.4454C178.483 90.7983 178.854 91.145 179.34 91.4853C179.839 91.8256 180.44 92.2353 181.143 92.7143C181.757 93.105 182.307 93.4958 182.793 93.8866C183.279 94.2773 183.67 94.7185 183.964 95.2101C184.258 95.7017 184.405 96.2878 184.405 96.9685C184.405 97.8004 184.181 98.4874 183.733 99.0294C183.299 99.5714 182.723 99.9811 182.007 100.258C181.29 100.523 180.504 100.655 179.647 100.655C178.854 100.655 178.221 100.58 177.747 100.429C177.274 100.277 176.878 100.12 176.558 99.9559C176.276 99.7794 176.059 99.6912 175.906 99.6912C175.778 99.6912 175.682 99.7605 175.618 99.8992C175.567 100.038 175.522 100.246 175.483 100.523H175.042C175.068 100.221 175.081 99.8677 175.081 99.4643C175.093 99.0609 175.1 98.5378 175.1 97.895C175.113 97.2395 175.119 96.4139 175.119 95.4181H175.56C175.611 96.25 175.752 97.0315 175.982 97.7626C176.225 98.4811 176.59 99.0609 177.076 99.5021C177.575 99.9433 178.233 100.164 179.052 100.164C179.5 100.164 179.896 100.088 180.242 99.937C180.6 99.7731 180.888 99.5336 181.105 99.2185C181.322 98.9034 181.431 98.5126 181.431 98.0462C181.431 97.5168 181.303 97.0567 181.047 96.666C180.804 96.2752 180.465 95.9097 180.031 95.5693C179.608 95.229 179.116 94.8824 178.553 94.5294C177.952 94.1387 177.389 93.7479 176.865 93.3571C176.34 92.9664 175.918 92.5189 175.599 92.0147C175.292 91.5105 175.138 90.9118 175.138 90.2185C175.138 89.4244 175.336 88.7752 175.733 88.271C176.142 87.7542 176.673 87.3761 177.325 87.1366C177.99 86.8845 178.694 86.7584 179.436 86.7584Z" fill="#A5CD38"/>
<path d="M192.008 86.9664L196.67 98.8025C196.849 99.2563 197.048 99.5714 197.265 99.7479C197.495 99.9118 197.7 100 197.879 100.013V100.391C197.495 100.366 197.041 100.353 196.517 100.353C196.005 100.34 195.487 100.334 194.963 100.334C194.374 100.334 193.818 100.34 193.294 100.353C192.769 100.353 192.354 100.366 192.047 100.391V100.013C192.699 99.9874 193.108 99.8803 193.274 99.6912C193.454 99.4895 193.415 99.0672 193.159 98.4244L189.898 89.6324L190.243 89.1408L187.327 96.6282C187.045 97.3214 186.873 97.8887 186.809 98.3298C186.758 98.771 186.79 99.1114 186.905 99.3508C187.033 99.5903 187.231 99.7605 187.499 99.8614C187.781 99.9496 188.113 100 188.497 100.013V100.391C188.075 100.366 187.672 100.353 187.288 100.353C186.905 100.34 186.515 100.334 186.118 100.334C185.837 100.334 185.568 100.34 185.312 100.353C185.069 100.353 184.852 100.366 184.66 100.391V100.013C184.929 99.9622 185.204 99.792 185.485 99.5021C185.766 99.2122 186.041 98.7206 186.31 98.0273L190.684 86.9664C190.889 86.979 191.106 86.9853 191.337 86.9853C191.58 86.9853 191.804 86.979 192.008 86.9664ZM193.351 94.9454V95.3235H187.634L187.826 94.9454H193.351Z" fill="#A5CD38"/>
<path d="M203.951 87.0042C206.471 87.0042 208.344 87.5714 209.572 88.7059C210.8 89.8277 211.414 91.4412 211.414 93.5462C211.414 94.9202 211.114 96.124 210.512 97.1576C209.911 98.1786 209.035 98.9727 207.884 99.5399C206.746 100.107 205.377 100.391 203.778 100.391C203.573 100.391 203.305 100.384 202.972 100.372C202.64 100.359 202.294 100.353 201.936 100.353C201.578 100.34 201.258 100.334 200.977 100.334C200.414 100.334 199.858 100.34 199.308 100.353C198.771 100.353 198.342 100.366 198.022 100.391V100.013C198.432 99.9874 198.739 99.937 198.943 99.8614C199.148 99.7857 199.282 99.6345 199.346 99.4076C199.423 99.1807 199.461 98.8403 199.461 98.3866V89.0084C199.461 88.542 199.423 88.2017 199.346 87.9874C199.282 87.7605 199.141 87.6093 198.924 87.5336C198.719 87.4454 198.419 87.395 198.022 87.3824V87.0042C198.342 87.0168 198.771 87.0357 199.308 87.0609C199.858 87.0735 200.401 87.0735 200.939 87.0609C201.399 87.0483 201.917 87.0357 202.493 87.0231C203.081 87.0105 203.567 87.0042 203.951 87.0042ZM203.932 87.3445C203.343 87.3445 202.96 87.4517 202.78 87.666C202.601 87.8803 202.512 88.3151 202.512 88.9706V98.4244C202.512 99.0798 202.601 99.5147 202.78 99.729C202.972 99.9433 203.362 100.05 203.951 100.05C205.025 100.05 205.869 99.8046 206.483 99.313C207.11 98.8088 207.558 98.0777 207.826 97.1198C208.095 96.1618 208.229 94.9958 208.229 93.6219C208.229 92.2101 208.082 91.0441 207.788 90.124C207.507 89.1912 207.053 88.4979 206.426 88.0441C205.799 87.5777 204.968 87.3445 203.932 87.3445Z" fill="#A5CD38"/>
<path d="M218.745 86.9664L223.407 98.8025C223.586 99.2563 223.785 99.5714 224.002 99.7479C224.232 99.9118 224.437 100 224.616 100.013V100.391C224.232 100.366 223.778 100.353 223.254 100.353C222.742 100.34 222.224 100.334 221.7 100.334C221.111 100.334 220.555 100.34 220.031 100.353C219.506 100.353 219.09 100.366 218.783 100.391V100.013C219.436 99.9874 219.845 99.8803 220.011 99.6912C220.19 99.4895 220.152 99.0672 219.896 98.4244L216.635 89.6324L216.98 89.1408L214.064 96.6282C213.782 97.3214 213.61 97.8887 213.546 98.3298C213.494 98.771 213.526 99.1114 213.642 99.3508C213.769 99.5903 213.968 99.7605 214.236 99.8614C214.518 99.9496 214.85 100 215.234 100.013V100.391C214.812 100.366 214.409 100.353 214.025 100.353C213.642 100.34 213.251 100.334 212.855 100.334C212.574 100.334 212.305 100.34 212.049 100.353C211.806 100.353 211.589 100.366 211.397 100.391V100.013C211.665 99.9622 211.94 99.792 212.222 99.5021C212.503 99.2122 212.778 98.7206 213.047 98.0273L217.421 86.9664C217.626 86.979 217.843 86.9853 218.074 86.9853C218.317 86.9853 218.54 86.979 218.745 86.9664ZM220.088 94.9454V95.3235H214.371L214.562 94.9454H220.088Z" fill="#A5CD38"/>
<path d="M229.612 87.0042C229.932 87.0168 230.36 87.0294 230.897 87.042C231.447 87.0546 231.991 87.0609 232.528 87.0609C233.142 87.0609 233.737 87.0546 234.312 87.042C234.888 87.0294 235.297 87.0231 235.54 87.0231C237.318 87.0231 238.649 87.3698 239.531 88.063C240.414 88.7563 240.855 89.6513 240.855 90.7479C240.855 91.2017 240.765 91.6807 240.586 92.1849C240.407 92.6765 240.1 93.1366 239.665 93.5651C239.243 93.9811 238.661 94.3214 237.919 94.5861C237.178 94.8508 236.244 94.9832 235.118 94.9832H233.161V94.605H234.926C235.681 94.605 236.25 94.4349 236.634 94.0945C237.03 93.7542 237.299 93.3067 237.44 92.7521C237.593 92.1975 237.67 91.5987 237.67 90.9559C237.67 89.7584 237.491 88.8635 237.133 88.271C236.775 87.6786 236.161 87.3824 235.291 87.3824C234.792 87.3824 234.466 87.4895 234.312 87.7038C234.172 87.9181 234.101 88.3529 234.101 89.0084V98.2731C234.101 98.7647 234.153 99.1303 234.255 99.3698C234.357 99.6092 234.555 99.7668 234.85 99.8424C235.144 99.9181 235.579 99.9622 236.154 99.9748V100.391C235.758 100.378 235.246 100.366 234.619 100.353C233.993 100.34 233.334 100.334 232.643 100.334C232.093 100.334 231.556 100.34 231.032 100.353C230.507 100.366 230.034 100.378 229.612 100.391V100.013C230.021 99.9874 230.328 99.937 230.533 99.8614C230.737 99.7857 230.872 99.6345 230.936 99.4076C231.012 99.1807 231.051 98.8403 231.051 98.3866V89.0084C231.051 88.542 231.012 88.2017 230.936 87.9874C230.872 87.7605 230.731 87.6093 230.514 87.5336C230.309 87.4454 230.008 87.395 229.612 87.3824V87.0042Z" fill="#A5CD38"/>
<path d="M247.224 86.9664L251.887 98.8025C252.066 99.2563 252.264 99.5714 252.481 99.7479C252.712 99.9118 252.916 100 253.095 100.013V100.391C252.712 100.366 252.258 100.353 251.733 100.353C251.221 100.34 250.703 100.334 250.179 100.334C249.591 100.334 249.034 100.34 248.51 100.353C247.985 100.353 247.57 100.366 247.263 100.391V100.013C247.915 99.9874 248.324 99.8803 248.491 99.6912C248.67 99.4895 248.631 99.0672 248.376 98.4244L245.114 89.6324L245.459 89.1408L242.543 96.6282C242.262 97.3214 242.089 97.8887 242.025 98.3298C241.974 98.771 242.006 99.1114 242.121 99.3508C242.249 99.5903 242.447 99.7605 242.716 99.8614C242.997 99.9496 243.33 100 243.713 100.013V100.391C243.291 100.366 242.888 100.353 242.505 100.353C242.121 100.34 241.731 100.334 241.334 100.334C241.053 100.334 240.784 100.34 240.528 100.353C240.285 100.353 240.068 100.366 239.876 100.391V100.013C240.145 99.9622 240.42 99.792 240.701 99.5021C240.983 99.2122 241.258 98.7206 241.526 98.0273L245.901 86.9664C246.105 86.979 246.323 86.9853 246.553 86.9853C246.796 86.9853 247.02 86.979 247.224 86.9664ZM248.567 94.9454V95.3235H242.85L243.042 94.9454H248.567Z" fill="#A5CD38"/>
<path d="M265.882 87.0042V87.3824C265.473 87.4328 265.166 87.5399 264.961 87.7038C264.757 87.855 264.616 88.1008 264.539 88.4412C264.475 88.7815 264.443 89.2605 264.443 89.8782V100.429C264.29 100.416 264.13 100.41 263.963 100.41C263.81 100.41 263.644 100.416 263.465 100.429L255.138 90.0294V97.2899C255.138 97.9832 255.176 98.5189 255.253 98.8971C255.33 99.2626 255.496 99.5273 255.752 99.6912C256.02 99.8424 256.436 99.9496 256.999 100.013V100.391C256.756 100.366 256.436 100.353 256.04 100.353C255.643 100.34 255.272 100.334 254.927 100.334C254.633 100.334 254.332 100.34 254.025 100.353C253.718 100.353 253.462 100.366 253.258 100.391V100.013C253.667 99.9496 253.974 99.8424 254.179 99.6912C254.383 99.5399 254.518 99.2941 254.582 98.9538C254.658 98.6008 254.697 98.1219 254.697 97.5168V89.0084C254.697 88.542 254.658 88.2017 254.582 87.9874C254.518 87.7605 254.377 87.6093 254.159 87.5336C253.955 87.4454 253.654 87.395 253.258 87.3824V87.0042C253.462 87.0168 253.718 87.0294 254.025 87.042C254.332 87.0546 254.633 87.0609 254.927 87.0609C255.234 87.0609 255.528 87.0546 255.809 87.042C256.091 87.0294 256.347 87.0168 256.577 87.0042L264.002 96.0231V90.105C264.002 89.4118 263.963 88.8824 263.887 88.5168C263.81 88.1387 263.637 87.8677 263.369 87.7038C263.113 87.5399 262.704 87.4328 262.141 87.3824V87.0042C262.384 87.0168 262.704 87.0294 263.1 87.042C263.497 87.0546 263.868 87.0609 264.213 87.0609C264.52 87.0609 264.82 87.0546 265.115 87.042C265.422 87.0294 265.677 87.0168 265.882 87.0042Z" fill="#A5CD38"/>
<path d="M278.75 87.0042C278.699 87.6471 278.66 88.2647 278.635 88.8571C278.622 89.4496 278.616 89.9034 278.616 90.2185C278.616 90.4958 278.622 90.7605 278.635 91.0126C278.647 91.2647 278.66 91.479 278.673 91.6555H278.232C278.027 90.5966 277.765 89.7584 277.445 89.1408C277.138 88.5231 276.767 88.0882 276.332 87.8361C275.897 87.5714 275.386 87.4391 274.797 87.4391H274.356V98.2353C274.356 98.7395 274.407 99.1177 274.51 99.3698C274.625 99.6219 274.829 99.792 275.124 99.8803C275.418 99.9559 275.846 100 276.409 100.013V100.391C276.013 100.378 275.482 100.366 274.817 100.353C274.164 100.34 273.48 100.334 272.764 100.334C272.06 100.334 271.395 100.34 270.768 100.353C270.142 100.366 269.636 100.378 269.253 100.391V100.013C269.828 100 270.263 99.9559 270.557 99.8803C270.852 99.792 271.05 99.6219 271.152 99.3698C271.254 99.1177 271.306 98.7395 271.306 98.2353V87.4391H270.884C270.295 87.4391 269.784 87.5714 269.349 87.8361C268.914 88.0882 268.543 88.5231 268.236 89.1408C267.929 89.7458 267.66 90.584 267.43 91.6555H266.989C267.014 91.479 267.027 91.2647 267.027 91.0126C267.04 90.7605 267.046 90.4958 267.046 90.2185C267.046 89.9034 267.034 89.4496 267.008 88.8571C266.995 88.2647 266.963 87.6471 266.912 87.0042C267.5 87.0168 268.14 87.0294 268.831 87.042C269.534 87.0546 270.238 87.0609 270.941 87.0609C271.645 87.0609 272.278 87.0609 272.841 87.0609C273.416 87.0609 274.049 87.0609 274.74 87.0609C275.443 87.0609 276.147 87.0546 276.85 87.042C277.554 87.0294 278.187 87.0168 278.75 87.0042Z" fill="#A5CD38"/>
<path d="M285.203 86.9664L289.865 98.8025C290.044 99.2563 290.243 99.5714 290.46 99.7479C290.69 99.9118 290.895 100 291.074 100.013V100.391C290.69 100.366 290.236 100.353 289.712 100.353C289.2 100.34 288.682 100.334 288.158 100.334C287.569 100.334 287.013 100.34 286.489 100.353C285.964 100.353 285.548 100.366 285.241 100.391V100.013C285.894 99.9874 286.303 99.8803 286.469 99.6912C286.648 99.4895 286.61 99.0672 286.354 98.4244L283.093 89.6324L283.438 89.1408L280.522 96.6282C280.24 97.3214 280.068 97.8887 280.004 98.3298C279.952 98.771 279.984 99.1114 280.1 99.3508C280.227 99.5903 280.426 99.7605 280.694 99.8614C280.976 99.9496 281.308 100 281.692 100.013V100.391C281.27 100.366 280.867 100.353 280.483 100.353C280.1 100.34 279.709 100.334 279.313 100.334C279.032 100.334 278.763 100.34 278.507 100.353C278.264 100.353 278.047 100.366 277.855 100.391V100.013C278.123 99.9622 278.398 99.792 278.68 99.5021C278.961 99.2122 279.236 98.7206 279.505 98.0273L283.879 86.9664C284.084 86.979 284.301 86.9853 284.532 86.9853C284.775 86.9853 284.998 86.979 285.203 86.9664ZM286.546 94.9454V95.3235H280.829L281.021 94.9454H286.546Z" fill="#A5CD38"/>
<path d="M303.861 87.0042V87.3824C303.451 87.4328 303.145 87.5399 302.94 87.7038C302.735 87.855 302.594 88.1008 302.518 88.4412C302.454 88.7815 302.422 89.2605 302.422 89.8782V100.429C302.268 100.416 302.108 100.41 301.942 100.41C301.789 100.41 301.622 100.416 301.443 100.429L293.117 90.0294V97.2899C293.117 97.9832 293.155 98.5189 293.232 98.8971C293.308 99.2626 293.475 99.5273 293.731 99.6912C293.999 99.8424 294.415 99.9496 294.978 100.013V100.391C294.735 100.366 294.415 100.353 294.018 100.353C293.622 100.34 293.251 100.334 292.906 100.334C292.611 100.334 292.311 100.34 292.004 100.353C291.697 100.353 291.441 100.366 291.236 100.391V100.013C291.646 99.9496 291.953 99.8424 292.157 99.6912C292.362 99.5399 292.496 99.2941 292.56 98.9538C292.637 98.6008 292.675 98.1219 292.675 97.5168V89.0084C292.675 88.542 292.637 88.2017 292.56 87.9874C292.496 87.7605 292.356 87.6093 292.138 87.5336C291.933 87.4454 291.633 87.395 291.236 87.3824V87.0042C291.441 87.0168 291.697 87.0294 292.004 87.042C292.311 87.0546 292.611 87.0609 292.906 87.0609C293.213 87.0609 293.507 87.0546 293.788 87.042C294.069 87.0294 294.325 87.0168 294.556 87.0042L301.981 96.0231V90.105C301.981 89.4118 301.942 88.8824 301.865 88.5168C301.789 88.1387 301.616 87.8677 301.347 87.7038C301.092 87.5399 300.682 87.4328 300.119 87.3824V87.0042C300.363 87.0168 300.682 87.0294 301.079 87.042C301.475 87.0546 301.846 87.0609 302.192 87.0609C302.499 87.0609 302.799 87.0546 303.093 87.042C303.4 87.0294 303.656 87.0168 303.861 87.0042Z" fill="#A5CD38"/>
<path d="M315.328 87.0042C315.277 87.5588 315.238 88.0945 315.213 88.6114C315.2 89.1282 315.194 89.5252 315.194 89.8025C315.194 90.0546 315.2 90.2941 315.213 90.521C315.226 90.7479 315.238 90.937 315.251 91.0882H314.81C314.682 90.1681 314.484 89.4433 314.215 88.9139C313.947 88.3719 313.595 87.9937 313.16 87.7794C312.738 87.5525 312.239 87.4391 311.663 87.4391H310.877C310.506 87.4391 310.224 87.4706 310.033 87.5336C309.841 87.5966 309.713 87.7227 309.649 87.9118C309.585 88.1008 309.553 88.3908 309.553 88.7815V98.6135C309.553 99.0042 309.585 99.2941 309.649 99.4832C309.713 99.6723 309.841 99.7983 310.033 99.8614C310.224 99.9244 310.506 99.9559 310.877 99.9559H311.817C312.392 99.9559 312.898 99.8361 313.333 99.5966C313.78 99.3445 314.158 98.9223 314.465 98.3298C314.784 97.7374 315.027 96.937 315.194 95.9286H315.635C315.597 96.3319 315.577 96.8614 315.577 97.5168C315.577 97.8067 315.584 98.2164 315.597 98.7458C315.609 99.2752 315.648 99.8235 315.712 100.391C315.059 100.366 314.324 100.353 313.505 100.353C312.687 100.34 311.958 100.334 311.318 100.334C310.998 100.334 310.589 100.334 310.09 100.334C309.591 100.334 309.054 100.34 308.478 100.353C307.903 100.353 307.321 100.359 306.733 100.372C306.144 100.372 305.588 100.378 305.063 100.391V100.013C305.473 99.9874 305.78 99.937 305.984 99.8614C306.189 99.7857 306.323 99.6345 306.387 99.4076C306.464 99.1807 306.502 98.8403 306.502 98.3866V89.0084C306.502 88.542 306.464 88.2017 306.387 87.9874C306.323 87.7605 306.183 87.6093 305.965 87.5336C305.76 87.4454 305.46 87.395 305.063 87.3824V87.0042C305.588 87.0168 306.144 87.0294 306.733 87.042C307.321 87.042 307.903 87.0483 308.478 87.0609C309.054 87.0609 309.591 87.0609 310.09 87.0609C310.589 87.0609 310.998 87.0609 311.318 87.0609C311.906 87.0609 312.572 87.0609 313.313 87.0609C314.068 87.0483 314.74 87.0294 315.328 87.0042ZM312.335 93.4706C312.335 93.4706 312.335 93.5336 312.335 93.6597C312.335 93.7857 312.335 93.8487 312.335 93.8487H308.977C308.977 93.8487 308.977 93.7857 308.977 93.6597C308.977 93.5336 308.977 93.4706 308.977 93.4706H312.335ZM312.891 90.9748C312.84 91.6933 312.815 92.2416 312.815 92.6198C312.827 92.9979 312.834 93.3445 312.834 93.6597C312.834 93.9748 312.84 94.3214 312.853 94.6996C312.866 95.0777 312.898 95.6261 312.949 96.3445H312.508C312.444 95.9034 312.322 95.4937 312.143 95.1156C311.977 94.7374 311.734 94.4349 311.414 94.208C311.094 93.9685 310.678 93.8487 310.167 93.8487V93.4706C310.551 93.4706 310.877 93.395 311.145 93.2437C311.414 93.0798 311.631 92.8719 311.798 92.6198C311.977 92.355 312.117 92.0777 312.22 91.7878C312.322 91.4979 312.399 91.2269 312.45 90.9748H312.891Z" fill="#A5CD38"/>
<path d="M323.152 87.0042V87.3824C322.742 87.395 322.429 87.4454 322.212 87.5336C322.007 87.6093 321.873 87.7605 321.809 87.9874C321.745 88.2017 321.713 88.542 321.713 89.0084V98.3866C321.713 98.8403 321.745 99.1807 321.809 99.4076C321.886 99.6345 322.026 99.7857 322.231 99.8614C322.436 99.937 322.742 99.9874 323.152 100.013V100.391C322.806 100.366 322.372 100.353 321.847 100.353C321.323 100.34 320.792 100.334 320.255 100.334C319.628 100.334 319.046 100.34 318.509 100.353C317.984 100.353 317.556 100.366 317.223 100.391V100.013C317.633 99.9874 317.94 99.937 318.144 99.8614C318.349 99.7857 318.483 99.6345 318.547 99.4076C318.624 99.1807 318.662 98.8403 318.662 98.3866V89.0084C318.662 88.542 318.624 88.2017 318.547 87.9874C318.483 87.7605 318.342 87.6093 318.125 87.5336C317.92 87.4454 317.62 87.395 317.223 87.3824V87.0042C317.556 87.0168 317.984 87.0294 318.509 87.042C319.046 87.0546 319.628 87.0609 320.255 87.0609C320.792 87.0609 321.323 87.0546 321.847 87.042C322.372 87.0294 322.806 87.0168 323.152 87.0042Z" fill="#A5CD38"/>
<path d="M324.437 87.0042C324.757 87.0168 325.185 87.0294 325.722 87.042C326.272 87.0546 326.816 87.0609 327.353 87.0609C327.967 87.0609 328.562 87.0546 329.137 87.042C329.713 87.0294 330.122 87.0231 330.365 87.0231C331.555 87.0231 332.54 87.1555 333.32 87.4202C334.113 87.6723 334.701 88.0441 335.085 88.5357C335.482 89.0273 335.68 89.6198 335.68 90.313C335.68 90.7416 335.59 91.1765 335.411 91.6177C335.232 92.0462 334.925 92.4496 334.49 92.8277C334.068 93.1933 333.486 93.4895 332.744 93.7164C332.003 93.9307 331.069 94.0378 329.943 94.0378H328.101V93.6597H329.751C330.506 93.6597 331.075 93.521 331.459 93.2437C331.855 92.9538 332.124 92.5756 332.265 92.1092C332.418 91.6303 332.495 91.1008 332.495 90.521C332.495 89.5252 332.316 88.7563 331.958 88.2143C331.6 87.6597 330.986 87.3824 330.116 87.3824C329.617 87.3824 329.291 87.4895 329.137 87.7038C328.997 87.9181 328.926 88.3529 328.926 89.0084V98.3866C328.926 98.8403 328.958 99.1807 329.022 99.4076C329.099 99.6345 329.24 99.7857 329.444 99.8614C329.649 99.937 329.956 99.9874 330.365 100.013V100.391C330.02 100.366 329.585 100.353 329.061 100.353C328.536 100.34 328.005 100.334 327.468 100.334C326.854 100.334 326.272 100.34 325.722 100.353C325.185 100.353 324.757 100.366 324.437 100.391V100.013C324.846 99.9874 325.153 99.937 325.358 99.8614C325.562 99.7857 325.697 99.6345 325.761 99.4076C325.837 99.1807 325.876 98.8403 325.876 98.3866V89.0084C325.876 88.542 325.837 88.2017 325.761 87.9874C325.697 87.7605 325.556 87.6093 325.339 87.5336C325.134 87.4454 324.833 87.395 324.437 87.3824V87.0042ZM328.063 93.7164C328.613 93.729 329.086 93.7542 329.483 93.792C329.892 93.8298 330.25 93.8677 330.557 93.9055C330.864 93.9307 331.139 93.9496 331.382 93.9622C332.546 94.063 333.403 94.3088 333.953 94.6996C334.516 95.0903 334.88 95.6765 335.047 96.458L335.488 98.4055C335.603 98.9097 335.725 99.2626 335.853 99.4643C335.98 99.666 336.166 99.7668 336.409 99.7668C336.575 99.7542 336.71 99.7164 336.812 99.6534C336.927 99.5777 337.048 99.4706 337.176 99.3319L337.445 99.5588C337.1 99.9496 336.729 100.227 336.332 100.391C335.936 100.567 335.456 100.655 334.893 100.655C334.203 100.655 333.633 100.511 333.186 100.221C332.738 99.9307 332.444 99.395 332.303 98.6135L331.958 96.7227C331.868 96.1933 331.759 95.7332 331.632 95.3424C331.504 94.9391 331.325 94.624 331.094 94.3971C330.877 94.1576 330.57 94.0378 330.173 94.0378H328.101L328.063 93.7164Z" fill="#A5CD38"/>
<path d="M344.129 86.9664L348.791 98.8025C348.97 99.2563 349.169 99.5714 349.386 99.7479C349.616 99.9118 349.821 100 350 100.013V100.391C349.616 100.366 349.162 100.353 348.638 100.353C348.126 100.34 347.608 100.334 347.084 100.334C346.495 100.334 345.939 100.34 345.415 100.353C344.89 100.353 344.474 100.366 344.167 100.391V100.013C344.82 99.9874 345.229 99.8803 345.395 99.6912C345.574 99.4895 345.536 99.0672 345.28 98.4244L342.019 89.6324L342.364 89.1408L339.448 96.6282C339.166 97.3214 338.994 97.8887 338.93 98.3298C338.878 98.771 338.91 99.1114 339.026 99.3508C339.153 99.5903 339.352 99.7605 339.62 99.8614C339.902 99.9496 340.234 100 340.618 100.013V100.391C340.196 100.366 339.793 100.353 339.409 100.353C339.026 100.34 338.635 100.334 338.239 100.334C337.958 100.334 337.689 100.34 337.433 100.353C337.19 100.353 336.973 100.366 336.781 100.391V100.013C337.049 99.9622 337.324 99.792 337.606 99.5021C337.887 99.2122 338.162 98.7206 338.431 98.0273L342.805 86.9664C343.01 86.979 343.227 86.9853 343.458 86.9853C343.701 86.9853 343.924 86.979 344.129 86.9664ZM345.472 94.9454V95.3235H339.755L339.947 94.9454H345.472Z" fill="#A5CD38"/>
</svg>
