<svg width="38" height="38" viewBox="0 0 38 38" fill="none" xmlns="http://www.w3.org/2000/svg">
<path d="M13.277 3.92517L11.9166 4.33557C10.7032 4.70107 9.61954 5.40564 8.79316 6.36633C7.96678 7.32701 7.4321 8.50382 7.25206 9.75817C6.68776 13.6874 7.94936 18.2816 10.9913 23.5503C14.0256 28.8057 17.3658 32.1915 21.0423 33.6735C22.2235 34.1496 23.5167 34.2764 24.768 34.039C26.0192 33.8015 27.176 33.2097 28.1008 32.334L29.1325 31.3574C29.8009 30.7242 30.2167 29.87 30.3027 28.9533C30.3886 28.0367 30.1389 27.12 29.5999 26.3737L27.0235 22.8017C26.6751 22.3194 26.1846 21.9583 25.6207 21.7688C25.0568 21.5794 24.4478 21.5712 23.879 21.7453L19.9821 22.9366L19.8814 22.9556C19.452 23.0183 18.4621 22.0892 17.2271 19.9498C15.9351 17.7116 15.6653 16.4025 16.0225 16.0643L18.0061 14.2156C18.7304 13.5398 19.2251 12.6543 19.4207 11.6832C19.6163 10.712 19.503 9.70404 19.0967 8.80057L17.8427 6.00567C17.4644 5.16379 16.7926 4.48837 15.9528 4.10552C15.1129 3.72267 14.1625 3.65856 13.2789 3.92517H13.277ZM16.108 6.78467L17.3639 9.57957C17.6081 10.1215 17.6764 10.7263 17.5591 11.3091C17.4419 11.8918 17.145 12.4232 16.7103 12.8286L14.7229 14.6792C13.4499 15.8819 13.8717 17.9396 15.5798 20.8998C17.1891 23.6852 18.6559 25.0608 20.231 24.8214L20.4666 24.772L24.4338 23.5617C24.6234 23.5034 24.8265 23.506 25.0146 23.569C25.2027 23.6321 25.3663 23.7524 25.4826 23.9132L28.059 27.4852C28.3287 27.8584 28.4538 28.317 28.4108 28.7755C28.3678 29.234 28.1597 29.6614 27.8253 29.978L26.7936 30.9546C26.133 31.5797 25.3069 32.0021 24.4133 32.1715C23.5198 32.3409 22.5964 32.2502 21.7529 31.9103C18.5267 30.6107 15.4772 27.5194 12.6367 22.6003C9.79046 17.6698 8.63906 13.4765 9.13306 10.028C9.26158 9.13176 9.64355 8.29094 10.234 7.60457C10.8244 6.9182 11.5987 6.41487 12.4657 6.15387L13.828 5.74347C14.2696 5.61075 14.7445 5.64321 15.164 5.83478C15.5835 6.02636 15.919 6.36397 16.108 6.78467Z" fill="#003B0F"/>
</svg>
