<?xml version="1.0" encoding="utf-8"?>
<!-- Generator: Adobe Illustrator 25.2.3, SVG Export Plug-In . SVG Version: 6.00 Build 0)  -->
<svg version="1.1" id="Capa_1" xmlns="http://www.w3.org/2000/svg" xmlns:xlink="http://www.w3.org/1999/xlink" x="0px" y="0px"
	 viewBox="0 0 512 512" style="enable-background:new 0 0 512 512;" xml:space="preserve">
<style type="text/css">
	.st0{fill:#25D366;}
	.st1{fill:#FFFFFF;}
	.st2{fill:#FAFAFA;}
</style>
<circle class="st0" cx="256" cy="256" r="254.5"/>
<g>
	<path class="st1" d="M261.7,390.5c-25.8,0-50.7-7.1-72.5-20.7l-61.3,19.6l19.9-59.3c-15.6-22.8-23.8-49.4-23.8-77.3
		c0-75.9,61.7-137.6,137.6-137.6h0.1c75.9,0,137.6,61.7,137.6,137.6S337.5,390.5,261.7,390.5z M191.6,352.2l3.2,2.1
		c19.8,13.1,43,20.1,66.9,20.1c67,0,121.6-54.6,121.6-121.6s-54.5-121.6-121.6-121.6h-0.1c-67,0-121.6,54.6-121.6,121.6
		c0,25.8,8,50.5,23.1,71.3l2.4,3.3l-12.4,37.1L191.6,352.2z"/>
</g>
<path class="st2" d="M334.9,302.9c-3,8.3-14.7,15.2-24,17.3c-6.4,1.4-14.7,2.4-42.9-9.2c-36-14.9-59.1-51.4-60.9-53.8
	c-1.7-2.4-14.5-19.3-14.5-36.9s8.9-26.1,12.5-29.8c3-3,7.8-4.4,12.5-4.4c1.5,0,2.9,0.1,4.1,0.1c3.6,0.2,5.4,0.4,7.8,6
	c3,7.1,10.1,24.7,11,26.5s1.7,4.3,0.5,6.6c-1.1,2.4-2.2,3.5-4,5.6s-3.5,3.7-5.3,5.9c-1.7,1.9-3.5,4-1.4,7.6
	c2.1,3.5,9.3,15.2,19.8,24.7c13.7,12.2,24.7,16,28.7,17.7c3,1.2,6.5,0.9,8.6-1.4c2.7-3,6.1-7.8,9.6-12.7c2.4-3.5,5.5-3.9,8.8-2.7
	c3.3,1.1,20.8,9.8,24.4,11.6c3.6,1.8,6,2.7,6.8,4.2C337.9,287.4,337.9,294.5,334.9,302.9z"/>
</svg>
